<svg width="1045" height="914" viewBox="0 0 1045 914" fill="none" xmlns="http://www.w3.org/2000/svg">
<path d="M539.347 840.692H812.701V0.589844" stroke="#263238" stroke-linecap="round" stroke-linejoin="round"/>
<path d="M276.95 840.691H22.3691" stroke="#263238" stroke-linecap="round" stroke-linejoin="round"/>
<path d="M148.075 365.299V379.741H206.955" stroke="#263238" stroke-linecap="round" stroke-linejoin="round"/>
<path d="M176.961 383.096V399.756H140.313" stroke="#263238" stroke-linecap="round" stroke-linejoin="round"/>
<path d="M149.184 405.301V418.608H196.948" stroke="#263238" stroke-linecap="round" stroke-linejoin="round"/>
<path d="M192.512 400.865H219.153" stroke="#263238" stroke-linecap="round" stroke-linejoin="round"/>
<path d="M176.961 425.287V444.166" stroke="#263238" stroke-linecap="round" stroke-linejoin="round"/>
<path d="M213.609 377.525V363.082" stroke="#263238" stroke-linecap="round" stroke-linejoin="round"/>
<path d="M179.179 358.645V343.094" stroke="#263238" stroke-linecap="round" stroke-linejoin="round"/>
<path d="M199.166 360.863H233.596" stroke="#263238" stroke-linecap="round" stroke-linejoin="round"/>
<path d="M24.8511 365.299V379.741H83.7306" stroke="#263238" stroke-linecap="round" stroke-linejoin="round"/>
<path d="M53.7362 383.096V399.756H17.0884" stroke="#263238" stroke-linecap="round" stroke-linejoin="round"/>
<path d="M25.9863 405.301V418.608H73.7236" stroke="#263238" stroke-linecap="round" stroke-linejoin="round"/>
<path d="M69.2878 400.865H95.9553" stroke="#263238" stroke-linecap="round" stroke-linejoin="round"/>
<path d="M53.7363 425.287V444.166" stroke="#263238" stroke-linecap="round" stroke-linejoin="round"/>
<path d="M90.384 377.525V363.082" stroke="#263238" stroke-linecap="round" stroke-linejoin="round"/>
<path d="M55.9541 358.645V343.094" stroke="#263238" stroke-linecap="round" stroke-linejoin="round"/>
<path d="M75.9414 360.863H110.371" stroke="#263238" stroke-linecap="round" stroke-linejoin="round"/>
<path d="M78.2915 458.08V472.523H137.171" stroke="#263238" stroke-linecap="round" stroke-linejoin="round"/>
<path d="M107.177 475.85V492.51H70.5288" stroke="#263238" stroke-linecap="round" stroke-linejoin="round"/>
<path d="M79.4004 498.057V511.39H127.164" stroke="#263238" stroke-linecap="round" stroke-linejoin="round"/>
<path d="M122.728 493.619H149.369" stroke="#263238" stroke-linecap="round" stroke-linejoin="round"/>
<path d="M107.177 518.043V536.921" stroke="#263238" stroke-linecap="round" stroke-linejoin="round"/>
<path d="M143.824 470.306V455.863" stroke="#263238" stroke-linecap="round" stroke-linejoin="round"/>
<path d="M109.395 451.427V435.875" stroke="#263238" stroke-linecap="round" stroke-linejoin="round"/>
<path d="M129.382 453.645H163.812" stroke="#263238" stroke-linecap="round" stroke-linejoin="round"/>
<path d="M116.075 259.686V274.128H174.954" stroke="#263238" stroke-linecap="round" stroke-linejoin="round"/>
<path d="M144.96 277.482V294.143H108.312" stroke="#263238" stroke-linecap="round" stroke-linejoin="round"/>
<path d="M117.184 299.688V312.995H164.947" stroke="#263238" stroke-linecap="round" stroke-linejoin="round"/>
<path d="M160.511 295.252H187.152" stroke="#263238" stroke-linecap="round" stroke-linejoin="round"/>
<path d="M144.96 319.674V338.552" stroke="#263238" stroke-linecap="round" stroke-linejoin="round"/>
<path d="M181.608 271.911V257.469" stroke="#263238" stroke-linecap="round" stroke-linejoin="round"/>
<path d="M147.178 253.032V237.48" stroke="#263238" stroke-linecap="round" stroke-linejoin="round"/>
<path d="M167.165 255.25H201.595" stroke="#263238" stroke-linecap="round" stroke-linejoin="round"/>
<path d="M569.394 520.314V534.757H628.274" stroke="#263238" stroke-linecap="round" stroke-linejoin="round"/>
<path d="M598.279 538.084V554.745H561.631" stroke="#263238" stroke-linecap="round" stroke-linejoin="round"/>
<path d="M570.503 560.289V573.623H618.267" stroke="#263238" stroke-linecap="round" stroke-linejoin="round"/>
<path d="M613.831 555.854H640.472" stroke="#263238" stroke-linecap="round" stroke-linejoin="round"/>
<path d="M598.279 580.303V599.181" stroke="#263238" stroke-linecap="round" stroke-linejoin="round"/>
<path d="M634.927 532.538V518.096" stroke="#263238" stroke-linecap="round" stroke-linejoin="round"/>
<path d="M600.497 513.661V498.109" stroke="#263238" stroke-linecap="round" stroke-linejoin="round"/>
<path d="M620.485 515.879H654.915" stroke="#263238" stroke-linecap="round" stroke-linejoin="round"/>
<path d="M694.388 520.314V534.757H753.241" stroke="#263238" stroke-linecap="round" stroke-linejoin="round"/>
<path d="M723.247 538.084V554.745H686.599" stroke="#263238" stroke-linecap="round" stroke-linejoin="round"/>
<path d="M695.497 560.289V573.623H743.234" stroke="#263238" stroke-linecap="round" stroke-linejoin="round"/>
<path d="M738.798 555.854H765.466" stroke="#263238" stroke-linecap="round" stroke-linejoin="round"/>
<path d="M723.247 580.303V599.181" stroke="#263238" stroke-linecap="round" stroke-linejoin="round"/>
<path d="M759.894 532.538V518.096" stroke="#263238" stroke-linecap="round" stroke-linejoin="round"/>
<path d="M725.464 513.661V498.109" stroke="#263238" stroke-linecap="round" stroke-linejoin="round"/>
<path d="M745.478 515.879H779.882" stroke="#263238" stroke-linecap="round" stroke-linejoin="round"/>
<path d="M694.388 722.115V736.558H753.241" stroke="#263238" stroke-linecap="round" stroke-linejoin="round"/>
<path d="M723.247 739.885V756.545H686.599" stroke="#263238" stroke-linecap="round" stroke-linejoin="round"/>
<path d="M695.497 762.09V775.424H743.234" stroke="#263238" stroke-linecap="round" stroke-linejoin="round"/>
<path d="M738.798 757.654H765.466" stroke="#263238" stroke-linecap="round" stroke-linejoin="round"/>
<path d="M723.247 782.076V800.955" stroke="#263238" stroke-linecap="round" stroke-linejoin="round"/>
<path d="M759.894 734.339V719.896" stroke="#263238" stroke-linecap="round" stroke-linejoin="round"/>
<path d="M725.464 715.462V699.91" stroke="#263238" stroke-linecap="round" stroke-linejoin="round"/>
<path d="M717.042 717.68H779.882" stroke="#263238" stroke-linecap="round" stroke-linejoin="round"/>
<path d="M664.948 636.885V651.327H723.827" stroke="#263238" stroke-linecap="round" stroke-linejoin="round"/>
<path d="M693.833 654.654V671.315H657.185" stroke="#263238" stroke-linecap="round" stroke-linejoin="round"/>
<path d="M666.057 676.859V690.193H713.821" stroke="#263238" stroke-linecap="round" stroke-linejoin="round"/>
<path d="M709.385 672.424H751.234" stroke="#263238" stroke-linecap="round" stroke-linejoin="round"/>
<path d="M693.833 696.873V715.751" stroke="#263238" stroke-linecap="round" stroke-linejoin="round"/>
<path d="M730.481 649.109V634.666" stroke="#263238" stroke-linecap="round" stroke-linejoin="round"/>
<path d="M696.051 630.231V614.68" stroke="#263238" stroke-linecap="round" stroke-linejoin="round"/>
<path d="M716.038 632.449H750.468" stroke="#263238" stroke-linecap="round" stroke-linejoin="round"/>
<path d="M605.725 365.299V379.741H664.605" stroke="#263238" stroke-linecap="round" stroke-linejoin="round"/>
<path d="M634.61 383.096V399.756H597.962" stroke="#263238" stroke-linecap="round" stroke-linejoin="round"/>
<path d="M606.86 405.301V418.608H654.598" stroke="#263238" stroke-linecap="round" stroke-linejoin="round"/>
<path d="M650.162 400.865H676.829" stroke="#263238" stroke-linecap="round" stroke-linejoin="round"/>
<path d="M634.61 425.287V444.166" stroke="#263238" stroke-linecap="round" stroke-linejoin="round"/>
<path d="M671.258 377.525V363.082" stroke="#263238" stroke-linecap="round" stroke-linejoin="round"/>
<path d="M636.828 358.645V343.094" stroke="#263238" stroke-linecap="round" stroke-linejoin="round"/>
<path d="M656.816 360.863H691.246" stroke="#263238" stroke-linecap="round" stroke-linejoin="round"/>
<g opacity="0.15">
<path opacity="0.15" d="M374.088 165.98C364.61 166.218 355.606 166.535 346.972 166.931V236.609C356.002 235.835 365.041 235.245 374.088 234.84V165.98Z" fill="#263238"/>
<path opacity="0.15" d="M502.013 170.02C493.696 169.254 484.639 168.515 474.896 167.881V237.322C483.953 238.167 492.983 239.223 502.013 240.437V170.02Z" fill="#263238"/>
<path opacity="0.15" d="M378.947 234.602C387.994 234.268 397.033 234.092 406.063 234.074V165.584H405.376C396.276 165.584 387.475 165.681 378.973 165.874L378.947 234.602Z" fill="#263238"/>
<path opacity="0.15" d="M470.038 167.563C461.457 167.035 452.401 166.586 442.922 166.27V234.918C451.978 235.367 461.008 235.974 470.038 236.793V167.563Z" fill="#263238"/>
<path opacity="0.15" d="M438.064 166.087C429.351 165.823 420.268 165.664 410.948 165.611V234.075C419.977 234.075 429.016 234.295 438.064 234.735V166.087Z" fill="#263238"/>
<path opacity="0.15" d="M538.872 174.139V246.141L552.074 248.306L560.417 177.492C560.417 177.492 552.707 175.987 538.872 174.139Z" fill="#263238"/>
<path opacity="0.15" d="M534.013 173.505C526.383 172.555 517.3 171.498 506.897 170.469V241.071C511.808 241.784 516.746 242.524 521.657 243.316L534.013 245.322V173.505Z" fill="#263238"/>
<path opacity="0.15" d="M310.166 169.201C299.869 170.02 290.786 170.838 283.05 171.657V244.741L295.776 242.761C300.581 241.995 305.36 241.282 310.166 240.622V169.201Z" fill="#263238"/>
<path opacity="0.15" d="M314.998 240.015C324.001 238.853 333.057 237.85 342.114 237.031V167.168C332.397 167.67 323.341 168.224 314.998 168.858V240.015Z" fill="#263238"/>
<path opacity="0.15" d="M278.139 172.211C262.085 173.954 253.108 175.379 253.108 175.379L260.633 248.332L278.139 245.559V172.211Z" fill="#263238"/>
</g>
<path d="M542.251 262.273H270.534V827.86H542.251V262.273Z" fill="#263238" stroke="#263238" stroke-linecap="round" stroke-linejoin="round"/>
<path d="M521.657 243.317C446.852 231.146 370.587 230.959 295.723 242.762L260.633 248.28V840.693H276.95V265.759H539.347V840.693H557.46V248.28L521.657 243.317Z" fill="white" stroke="#263238" stroke-miterlimit="10"/>
<path d="M509.01 289.1H303.776V804.546H509.01V289.1Z" fill="#263238" stroke="white" stroke-linecap="round" stroke-linejoin="round"/>
<path d="M486.303 607.445H326.536V768.374H486.303V607.445Z" fill="#263238" stroke="white" stroke-linecap="round" stroke-linejoin="round"/>
<path d="M387.184 327.568H326.536V582.968H387.184V327.568Z" fill="white"/>
<path d="M326.51 493.251V582.97H387.158V454.729L326.51 493.251Z" fill="#92E3A9"/>
<path opacity="0.5" d="M326.51 493.251V582.97H387.158V454.729L326.51 493.251Z" fill="white"/>
<path d="M387.184 327.568H326.536V582.968H387.184V327.568Z" stroke="#263238" stroke-linecap="round" stroke-linejoin="round"/>
<path d="M486.303 327.568H425.654V582.968H486.303V327.568Z" fill="white"/>
<path d="M425.654 430.305V582.969H486.303V391.809L425.654 430.305Z" fill="#92E3A9"/>
<path opacity="0.5" d="M425.654 430.305V582.969H486.303V391.809L425.654 430.305Z" fill="white"/>
<path d="M486.303 327.568H425.654V582.968H486.303V327.568Z" stroke="#263238" stroke-linecap="round" stroke-linejoin="round"/>
<path d="M466.606 627.273H346.206V748.544H466.606V627.273Z" fill="#263238" stroke="white" stroke-linecap="round" stroke-linejoin="round"/>
<path d="M535.017 511.047H513.815V518.942H535.017V511.047Z" fill="#92E3A9" stroke="#263238" stroke-linecap="round" stroke-linejoin="round"/>
<path d="M535.017 621.939H513.815V629.834H535.017V621.939Z" fill="#92E3A9" stroke="#263238" stroke-linecap="round" stroke-linejoin="round"/>
<path d="M510.831 657.611C509.902 657.604 509.013 657.231 508.356 656.574C507.699 655.917 507.327 655.028 507.32 654.099V488.497C507.327 487.57 507.7 486.684 508.358 486.031C509.015 485.378 509.905 485.012 510.831 485.012V485.012C511.756 485.012 512.642 485.379 513.296 486.033C513.95 486.686 514.317 487.573 514.317 488.497V654.099C514.317 655.026 513.95 655.915 513.298 656.573C512.645 657.23 511.758 657.604 510.831 657.611V657.611Z" fill="#92E3A9" stroke="#263238" stroke-linecap="round" stroke-linejoin="round"/>
<path d="M533.829 565.252H522.475V586.929H533.829V565.252Z" fill="#92E3A9" stroke="#263238" stroke-linecap="round" stroke-linejoin="round"/>
<path d="M571.559 901.816H244.342L282.099 843.729H533.802L571.559 901.816Z" fill="#92E3A9" stroke="#263238" stroke-linecap="round" stroke-linejoin="round"/>
<path d="M240.435 482.557H125.897V572.196H240.435V482.557Z" fill="#263238" stroke="#263238" stroke-linecap="round" stroke-linejoin="round"/>
<path d="M230.481 488.523H133.871V503.468H230.481V488.523Z" fill="white" stroke="#263238" stroke-linecap="round" stroke-linejoin="round"/>
<path d="M229.002 516.354H134.425V552.737H229.002V516.354Z" fill="#263238" stroke="white" stroke-linecap="round" stroke-linejoin="round"/>
<path d="M616.445 617.188L602.346 611.036C603.41 613.608 604.9 615.982 606.755 618.059C608.841 620.467 610.615 623.128 612.035 625.98C612.035 625.98 598.834 616.29 590.015 614.521C583.916 613.404 577.733 612.812 571.533 612.752L584.734 618.93L574.173 621.571L576.813 625.082H558.331L570.661 633.901L565.381 640.924L560.1 649.743L574.2 645.36L570.661 654.179L577.711 650.641L573.302 658.562H564.509L575.942 664.74H568.021L571.559 667.38L566.278 671.79L577.711 673.532L570.503 678.602L588.272 676.173L582.121 684.991L597.091 681.48V685.863H679.866L682.189 678.602L685.146 675.301L693.939 669.149L684.249 668.252L688.658 665.611L685.146 662.1L691.298 657.69L686.889 651.538L693.067 639.208L679.866 637.439L682.506 631.287V619.828L670.176 618.957L671.945 606.626L662.255 609.267L656.974 610.138L649.924 603.088L647.284 615.418L636.723 605.728L631.442 602.217L629.699 612.778L620.881 611.036L616.445 617.188Z" fill="#92E3A9"/>
<path opacity="0.4" d="M616.445 617.188L602.346 611.036C603.41 613.608 604.9 615.982 606.755 618.059C608.841 620.467 610.615 623.128 612.035 625.98C612.035 625.98 598.834 616.29 590.015 614.521C583.916 613.404 577.733 612.812 571.533 612.752L584.734 618.93L574.173 621.571L576.813 625.082H558.331L570.661 633.901L565.381 640.924L560.1 649.743L574.2 645.36L570.661 654.179L577.711 650.641L573.302 658.562H564.509L575.942 664.74H568.021L571.559 667.38L566.278 671.79L577.711 673.532L570.503 678.602L588.272 676.173L582.121 684.991L597.091 681.48V685.863H679.866L682.189 678.602L685.146 675.301L693.939 669.149L684.249 668.252L688.658 665.611L685.146 662.1L691.298 657.69L686.889 651.538L693.067 639.208L679.866 637.439L682.506 631.287V619.828L670.176 618.957L671.945 606.626L662.255 609.267L656.974 610.138L649.924 603.088L647.284 615.418L636.723 605.728L631.442 602.217L629.699 612.778L620.881 611.036L616.445 617.188Z" fill="white"/>
<path opacity="0.2" d="M602.451 685.863H679.945L681.82 680.002L679.945 679.738L682.585 673.586V662.127L670.255 661.255L672.024 648.925L662.334 651.565L657.053 652.437L650.003 645.387L647.363 657.717L636.802 648.054L631.521 644.516L629.778 655.077L620.96 653.334L616.445 659.486L602.345 653.334C603.41 655.907 604.9 658.281 606.755 660.358C608.841 662.765 610.615 665.427 612.035 668.279C612.035 668.279 598.834 658.589 590.015 656.82C585.116 655.907 580.156 655.351 575.176 655.156L574.463 656.424L584.734 661.229L574.305 663.869L575.916 664.741H574.807L576.813 667.381H571.533L566.252 671.764L577.685 673.506L570.477 678.576L588.246 676.147L582.12 684.992L597.091 681.48V685.863H602.451Z" fill="#263238"/>
<path d="M661.621 852.098H591.256L587.824 840.085C574.706 794.095 568.705 746.368 570.028 698.563L570.582 678.602H682.268L682.823 696.952C684.27 744.497 678.474 791.986 665.634 837.787L661.621 852.098Z" fill="#263238" stroke="#263238" stroke-linecap="round" stroke-linejoin="round"/>
<path d="M127.375 681.057L123.045 672.397L129.54 666.641H123.045L126.662 662.311H115.837L127.375 655.815L116.576 653.65L123.784 648.607L112.959 638.521H125.949L121.619 633.478L126.662 629.861L123.784 625.531L128.827 621.201L133.158 624.079L127.375 611.114L137.488 616.158L141.079 606.784L145.409 608.949L148.445 602.903L149.739 600.289L153.356 608.237L164.894 601.741L167.059 607.497L175.693 605.332L178.598 614.732L180.024 598.863L189.397 608.237L194.44 601.002L196.605 610.402L203.813 606.784L204.552 611.827L208.143 608.237L207.43 616.87L221.846 608.949L216.803 619.775H227.629L223.299 625.531L231.959 626.244L229.055 630.574L241.332 631.313L235.55 645.016H240.619L238.111 651.221L237.715 652.224L236.289 657.98L241.332 659.433L238.639 665.453L238.454 665.928L242.758 673.849L234.837 672.397L240.619 677.466L236.949 678.601L231.22 682.509L127.375 681.057Z" fill="#92E3A9"/>
<path opacity="0.4" d="M127.375 681.057L123.045 672.397L129.54 666.641H123.045L126.662 662.311H115.837L127.375 655.815L116.576 653.65L123.784 648.607L112.959 638.521H125.949L121.619 633.478L126.662 629.861L123.784 625.531L128.827 621.201L133.158 624.079L127.375 611.114L137.488 616.158L141.079 606.784L145.409 608.949L148.445 602.903L149.739 600.289L153.356 608.237L164.894 601.741L167.059 607.497L175.693 605.332L178.598 614.732L180.024 598.863L189.397 608.237L194.44 601.002L196.605 610.402L203.813 606.784L204.552 611.827L208.143 608.237L207.43 616.87L221.846 608.949L216.803 619.775H227.629L223.299 625.531L231.959 626.244L229.055 630.574L241.332 631.313L235.55 645.016H240.619L238.111 651.221L237.715 652.224L236.289 657.98L241.332 659.433L238.639 665.453L238.454 665.928L242.758 673.849L234.837 672.397L240.619 677.466L236.949 678.601L231.22 682.509L127.375 681.057Z" fill="white"/>
<path opacity="0.2" d="M236.949 678.602L240.619 677.467L238.454 675.592L229.055 675.038L231.959 670.707L223.299 669.995L227.629 664.212H216.803L221.847 653.387L207.43 661.334L208.143 652.674L204.552 656.291L203.813 651.248L196.605 654.839L194.44 645.466L189.397 652.674L180.024 643.301L178.598 659.169L175.693 649.796L167.06 651.961L164.894 646.179L153.356 652.674L149.739 644.753L148.445 647.34L145.409 653.387L141.079 651.248L137.488 660.621L127.375 655.552L133.158 668.542L128.827 665.664L127.666 666.641H129.54L124.524 671.104L126.662 674.325L124.709 675.698L127.375 681.058L231.22 682.51L236.949 678.602Z" fill="#263238"/>
<path d="M216.275 852.098H145.91L142.478 840.085C129.361 794.095 123.359 746.368 124.682 698.563L125.236 678.602H236.949L237.504 696.952C238.989 744.494 233.22 791.984 220.394 837.787L216.275 852.098Z" fill="#263238" stroke="#263238" stroke-linecap="round" stroke-linejoin="round"/>
<path opacity="0.3" d="M586.292 879.399H585.791H585.289H584.365H583.837H582.543H581.962C573.196 879.108 553.473 879.082 531.056 879.399C508.64 879.716 489.973 880.27 482.765 880.772H482.289H481.286H480.89H480.23H479.913H479.649C479.649 880.772 479.517 880.772 479.649 880.772C479.816 880.791 479.984 880.791 480.151 880.772H480.468H481.101H481.682H482.527H483.372H484.402H494.752C503.597 880.772 515.637 880.772 529.076 880.772C528.737 880.864 528.445 881.081 528.258 881.379H472.203L471.068 880.798H471.622H472.467H473.101H473.735H474.157H474.527H474.712C474.712 880.798 474.844 880.798 474.712 880.798C474.555 880.768 474.393 880.768 474.236 880.798H473.735H473.233H472.309H471.781H470.487H469.299L464.599 878.369H461.035C446.777 872.824 419.581 868.838 396.611 869.154C373.64 869.471 362.867 874.013 370.207 879.716H366.643L371.342 882.145H370.788H370.339H369.336H368.94H368.253H367.963H367.699C367.699 882.145 367.567 882.145 367.699 882.145C367.856 882.175 368.017 882.175 368.174 882.145H368.253H368.887H369.468H370.313H371.158H372.187H372.874L373.93 882.673L316.767 884.178C315.816 883.967 314.786 883.782 313.678 883.623C326.879 883.412 338.549 883.122 346.682 882.805H347.342H348.9H350.273H351.593H352.834H353.916H354.972H355.844H356.689H357.349H357.982H358.378H358.774H358.959C358.799 882.737 358.63 882.692 358.458 882.673H357.982H357.481H356.557H356.002H354.735H354.154C345.362 882.382 325.638 882.356 303.222 882.673C280.805 882.99 262.165 883.544 254.956 884.046H254.508H253.478H253.082H252.422H252.131H251.841C251.999 884.063 252.158 884.063 252.316 884.046H252.633H253.293H253.874H254.719H255.537H256.567H266.917C275.815 884.046 288.04 884.046 301.374 884.046C300.185 884.495 300.133 885.181 301.532 885.894L302.271 886.264C306.794 887.946 311.601 888.726 316.423 888.561C319.882 888.561 321.968 888.006 322.285 887.267H382.062L385.442 889.01L401.68 892.231H402.366L403.555 893.34C403.264 893.34 403.211 893.604 403.555 893.789L404.135 894.106H398.406L397.825 893.789C396.682 893.384 395.473 893.196 394.261 893.234C392.94 893.234 392.412 893.525 393.046 893.868L393.627 894.158L383.805 894.29L419.027 912.588H428.849H428.638C430.13 913.149 431.718 913.409 433.311 913.354L442.79 913.222H443.344H444.005L453.483 913.09C455.226 913.09 455.939 912.694 455.094 912.245L444.533 912.403H444.242L456.52 912.245L522.211 911.321H521.71L511.148 911.479C512.643 912.029 514.231 912.281 515.822 912.218L525.301 912.086H526.515L535.994 911.954C537.684 911.954 538.397 911.558 537.657 911.136H540.509L504.944 893.023H502.118L501.537 892.733C500.399 892.305 499.188 892.108 497.973 892.152C496.653 892.152 496.098 892.469 496.758 892.785L497.339 893.102H491.61L491.029 892.785C489.886 892.378 488.677 892.19 487.464 892.231C486.144 892.231 485.616 892.521 486.25 892.865L486.831 893.155H483.768L480.547 890.832L483.451 887.848L480.019 886.052L533.591 884.653C537 885.393 540.48 885.747 543.968 885.709C549.248 885.709 551.413 884.495 548.826 883.069L548.113 882.699C545.934 881.768 543.63 881.163 541.275 880.904C554.635 880.693 566.279 880.402 574.464 880.085H575.124H576.655H578.028H579.375H580.589H581.698H582.754H583.626H584.471H585.104H585.738H586.16H586.53H586.715C586.715 880.085 586.847 880.085 586.715 880.085C586.663 879.813 586.512 879.568 586.292 879.399V879.399ZM532.535 911.505H526.806H532.535ZM433.681 912.931H439.41H433.681Z" fill="#263238"/>
<path d="M863.527 272.887H751.472L737.451 254.088H877.521L863.527 272.887Z" fill="#263238" stroke="#263238" stroke-linecap="round" stroke-linejoin="round"/>
<path d="M646.518 240.094L740.593 244.398V220.371L646.518 224.701V240.094Z" fill="white" stroke="#263238" stroke-linecap="round" stroke-linejoin="round"/>
<path d="M872.927 216.437C873.202 214.009 873.343 211.567 873.35 209.123C873.35 191.659 866.412 174.91 854.063 162.56C841.713 150.211 824.964 143.273 807.5 143.273C790.035 143.273 773.286 150.211 760.937 162.56C748.587 174.91 741.65 191.659 741.65 209.123C741.648 211.567 741.78 214.008 742.046 216.437H872.927Z" fill="#263238" stroke="#263238" stroke-width="0.954545" stroke-linecap="round" stroke-linejoin="round"/>
<path d="M963.253 240.094L869.178 244.398V220.371L963.253 224.701V240.094Z" fill="white" stroke="#263238" stroke-linecap="round" stroke-linejoin="round"/>
<path d="M877.521 198.668H737.451V254.062H877.521V198.668Z" fill="white" stroke="#263238" stroke-linecap="round" stroke-linejoin="round"/>
<path d="M863.765 273.494H751.234V283.237H863.765V273.494Z" fill="white" stroke="#263238" stroke-linecap="round" stroke-linejoin="round"/>
<path d="M647.548 217.758H637.119C632.496 217.758 628.749 221.505 628.749 226.128V238.643C628.749 243.265 632.496 247.013 637.119 247.013H647.548C652.171 247.013 655.918 243.265 655.918 238.643V226.128C655.918 221.505 652.171 217.758 647.548 217.758Z" fill="white" stroke="#263238" stroke-linecap="round" stroke-linejoin="round"/>
<path d="M812.701 217.758H802.272C797.649 217.758 793.902 221.505 793.902 226.128V238.643C793.902 243.265 797.649 247.013 802.272 247.013H812.701C817.324 247.013 821.071 243.265 821.071 238.643V226.128C821.071 221.505 817.324 217.758 812.701 217.758Z" fill="white" stroke="#263238" stroke-linecap="round" stroke-linejoin="round"/>
<path d="M962.223 247.012H972.653C977.275 247.012 981.022 243.264 981.022 238.642V226.127C981.022 221.504 977.275 217.757 972.653 217.757H962.223C957.601 217.757 953.853 221.504 953.853 226.127V238.642C953.853 243.264 957.601 247.012 962.223 247.012Z" fill="white" stroke="#263238" stroke-linecap="round" stroke-linejoin="round"/>
<path d="M642.347 221.111C684.62 221.111 718.89 218.333 718.89 214.906C718.89 211.479 684.62 208.701 642.347 208.701C600.073 208.701 565.803 211.479 565.803 214.906C565.803 218.333 600.073 221.111 642.347 221.111Z" fill="white" stroke="#263238" stroke-linecap="round" stroke-linejoin="round"/>
<path d="M718.89 214.907C718.89 214.062 716.857 213.27 713.187 212.557L642.241 214.907L571.48 212.557C567.81 213.27 565.803 214.062 565.803 214.907C565.803 216.491 573.17 217.943 585.262 219.052L642.241 214.907L699.325 219.052C711.497 217.943 718.89 216.491 718.89 214.907Z" fill="#263238"/>
<path d="M967.689 221.111C1009.96 221.111 1044.23 218.333 1044.23 214.906C1044.23 211.479 1009.96 208.701 967.689 208.701C925.415 208.701 891.146 211.479 891.146 214.906C891.146 218.333 925.415 221.111 967.689 221.111Z" fill="white" stroke="#263238" stroke-linecap="round" stroke-linejoin="round"/>
<path d="M1044.18 214.907C1044.18 214.062 1042.15 213.27 1038.5 212.557L967.557 214.907L896.77 212.557C893.126 213.27 891.093 214.062 891.093 214.907C891.093 216.491 898.459 217.943 910.578 219.052L967.61 214.907L1024.69 219.052C1036.84 217.943 1044.18 216.491 1044.18 214.907Z" fill="#263238"/>
<path d="M807.5 221.111C849.773 221.111 884.043 218.333 884.043 214.906C884.043 211.479 849.773 208.701 807.5 208.701C765.226 208.701 730.956 211.479 730.956 214.906C730.956 218.333 765.226 221.111 807.5 221.111Z" fill="white" stroke="#263238" stroke-linecap="round" stroke-linejoin="round"/>
<path d="M884.043 214.907C884.043 214.062 882.01 213.27 878.34 212.557L807.394 214.907L736.633 212.557C732.963 213.27 730.956 214.062 730.956 214.907C730.956 216.491 738.323 217.943 750.416 219.052L807.394 214.907L864.478 219.052C876.65 217.943 884.043 216.491 884.043 214.907Z" fill="#263238"/>
<path d="M871.554 278.09C870.651 278.09 869.785 278.449 869.146 279.087C868.507 279.726 868.148 280.593 868.148 281.496V386.449H852.174C852.174 387.633 852.644 388.768 853.481 389.604C854.318 390.441 855.453 390.911 856.636 390.911H870.208C870.952 390.91 871.685 390.724 872.339 390.369C872.994 390.014 873.55 389.502 873.957 388.878C874.593 388.229 874.953 387.358 874.96 386.449V281.496C874.96 280.593 874.602 279.726 873.963 279.087C873.324 278.449 872.458 278.09 871.554 278.09Z" fill="white" stroke="#263238" stroke-linecap="round" stroke-linejoin="round"/>
<path d="M889.957 281.496C889.957 280.593 889.599 279.726 888.96 279.087C888.321 278.449 887.455 278.09 886.551 278.09C885.648 278.09 884.782 278.449 884.143 279.087C883.504 279.726 883.145 280.593 883.145 281.496V386.449H867.435C867.435 387.037 867.552 387.62 867.778 388.163C868.003 388.706 868.334 389.199 868.752 389.614C869.169 390.029 869.664 390.357 870.208 390.579C870.753 390.802 871.336 390.915 871.924 390.911H885.469C886.621 390.912 887.729 390.468 888.56 389.671C889.392 388.873 889.883 387.785 889.931 386.634C889.931 386.634 889.931 386.634 889.931 386.449L889.957 281.496Z" fill="white" stroke="#263238" stroke-linecap="round" stroke-linejoin="round"/>
<path d="M894.024 283.186H720.976V386.132H894.024V283.186Z" fill="#263238" stroke="#263238" stroke-linecap="round" stroke-linejoin="round"/>
<path d="M893.997 283.186H774.311V386.132H893.997V283.186Z" fill="#92E3A9" stroke="#263238" stroke-linecap="round" stroke-linejoin="round"/>
<path d="M741.808 386.449V281.496C741.808 280.593 741.449 279.726 740.81 279.087C740.172 278.449 739.305 278.09 738.402 278.09C737.499 278.09 736.632 278.449 735.994 279.087C735.355 279.726 734.996 280.593 734.996 281.496V386.449H734.706C734.706 387.037 734.822 387.62 735.048 388.163C735.274 388.706 735.605 389.199 736.022 389.614C736.439 390.029 736.934 390.357 737.478 390.579C738.023 390.802 738.606 390.915 739.194 390.911H752.739C753.922 390.911 755.057 390.441 755.894 389.604C756.731 388.768 757.201 387.633 757.201 386.449H741.808Z" fill="white" stroke="#263238" stroke-linecap="round" stroke-linejoin="round"/>
<path d="M756.805 386.449V281.496C756.805 280.593 756.446 279.726 755.808 279.087C755.169 278.449 754.303 278.09 753.399 278.09C752.496 278.09 751.63 278.449 750.991 279.087C750.352 279.726 749.993 280.593 749.993 281.496V386.449C749.99 387.036 750.103 387.618 750.326 388.161C750.549 388.704 750.877 389.197 751.292 389.612C751.707 390.027 752.201 390.356 752.744 390.579C753.287 390.802 753.868 390.915 754.455 390.911H768C768.589 390.915 769.172 390.802 769.716 390.579C770.261 390.357 770.756 390.029 771.173 389.614C771.59 389.199 771.921 388.706 772.147 388.163C772.373 387.62 772.489 387.037 772.489 386.449H756.805Z" fill="white" stroke="#263238" stroke-linecap="round" stroke-linejoin="round"/>
</svg>
