<svg width="224" height="207" viewBox="0 0 224 207" fill="none" xmlns="http://www.w3.org/2000/svg">
<path d="M115.652 206.375C169.288 206.375 212.768 202.557 212.768 197.848C212.768 193.138 169.288 189.32 115.652 189.32C62.0157 189.32 18.5352 193.138 18.5352 197.848C18.5352 202.557 62.0157 206.375 115.652 206.375Z" fill="#92E3A9"/>
<path opacity="0.5" d="M115.652 206.375C169.288 206.375 212.768 202.557 212.768 197.848C212.768 193.138 169.288 189.32 115.652 189.32C62.0157 189.32 18.5352 193.138 18.5352 197.848C18.5352 202.557 62.0157 206.375 115.652 206.375Z" fill="white"/>
<path d="M16.6194 89.9941V95.0367" stroke="#263238" stroke-linecap="round" stroke-linejoin="round"/>
<path d="M19.1437 92.5195H14.1011" stroke="#263238" stroke-linecap="round" stroke-linejoin="round"/>
<path d="M188.687 46.7891V51.8316" stroke="#263238" stroke-linecap="round" stroke-linejoin="round"/>
<path d="M191.205 49.3125H186.163" stroke="#263238" stroke-linecap="round" stroke-linejoin="round"/>
<path d="M117.056 7.75586V12.7984" stroke="#263238" stroke-linecap="round" stroke-linejoin="round"/>
<path d="M119.575 10.2754H114.532" stroke="#263238" stroke-linecap="round" stroke-linejoin="round"/>
<path d="M34.0552 146.469V151.511" stroke="#263238" stroke-linecap="round" stroke-linejoin="round"/>
<path d="M36.5736 148.988H31.531" stroke="#263238" stroke-linecap="round" stroke-linejoin="round"/>
<path d="M186.43 28.6144C186.431 29.4399 186.187 30.2472 185.729 30.9342C185.271 31.6211 184.62 32.1569 183.858 32.4736C183.095 32.7903 182.256 32.8737 181.446 32.7133C180.637 32.553 179.893 32.156 179.308 31.5727C178.724 30.9893 178.326 30.2458 178.165 29.4362C178.003 28.6266 178.086 27.7873 178.401 27.0245C178.717 26.2617 179.252 25.6097 179.938 25.1509C180.624 24.6921 181.431 24.4473 182.257 24.4473C183.363 24.4473 184.423 24.8861 185.206 25.6674C185.988 26.4488 186.428 27.5087 186.43 28.6144Z" stroke="#263238" stroke-linecap="round" stroke-linejoin="round"/>
<path d="M7.99872 128.736C10.125 127.855 11.1347 125.418 10.2539 123.291C9.37322 121.165 6.9356 120.155 4.80936 121.036C2.68313 121.917 1.67344 124.355 2.55415 126.481C3.43487 128.607 5.87248 129.617 7.99872 128.736Z" stroke="#263238" stroke-linecap="round" stroke-linejoin="round"/>
<path d="M205.378 71.251C205.388 71.3814 205.371 71.5126 205.328 71.6362C205.285 71.7598 205.217 71.8732 205.128 71.9692C205.039 72.0653 204.931 72.1419 204.812 72.1943C204.692 72.2467 204.562 72.2738 204.431 72.2738C204.3 72.2738 204.171 72.2467 204.051 72.1943C203.931 72.1419 203.823 72.0653 203.735 71.9692C203.646 71.8732 203.578 71.7598 203.535 71.6362C203.492 71.5126 203.475 71.3814 203.485 71.251C203.503 71.0126 203.611 70.79 203.786 70.6276C203.962 70.4652 204.192 70.375 204.431 70.375C204.67 70.375 204.901 70.4652 205.076 70.6276C205.252 70.79 205.359 71.0126 205.378 71.251Z" stroke="#263238" stroke-linecap="round" stroke-linejoin="round"/>
<path d="M60.7918 57.6078C60.793 57.7958 60.7382 57.9799 60.6346 58.1368C60.531 58.2936 60.3831 58.4162 60.2097 58.4889C60.0363 58.5617 59.8453 58.5813 59.6607 58.5453C59.4762 58.5093 59.3065 58.4193 59.1732 58.2868C59.0398 58.1542 58.9488 57.9851 58.9117 57.8008C58.8746 57.6165 58.8931 57.4253 58.9648 57.2515C59.0365 57.0777 59.1582 56.929 59.3144 56.8245C59.4707 56.7199 59.6544 56.6641 59.8424 56.6641C60.0933 56.6641 60.3339 56.7633 60.5118 56.9401C60.6896 57.1169 60.7903 57.357 60.7918 57.6078V57.6078Z" stroke="#263238" stroke-linecap="round" stroke-linejoin="round"/>
<path d="M220.113 113.512V113.483H220.079V113.455C219.289 113.375 211.108 112.676 203.644 116.553C206.941 112.411 208.462 107.13 207.874 101.869C206.071 83.8474 189.068 73.5349 187.754 72.7617V72.7674H187.715H187.675C186.362 73.5406 169.358 83.8531 167.556 101.875C167.171 105.363 167.708 108.892 169.113 112.107C159.54 106.383 148.375 107.349 147.346 107.451V107.417V107.457H147.306V107.486C146.8 108.651 140.41 124.018 148.085 137.076C154.952 148.753 169.352 145.666 173.263 144.569C176.549 148.02 182.541 155.876 185.202 169.281H181.473L183.206 194.705H191.597L193.439 169.315H189.045C191.059 160.229 194.69 151.579 199.767 143.779C203.684 144.756 214.281 146.405 219.505 137.525C225.713 126.923 220.528 114.461 220.113 113.512ZM187.447 113.415L178.579 101.096C178.56 101.07 178.546 101.042 178.539 101.011C178.531 100.98 178.53 100.948 178.534 100.917C178.539 100.886 178.55 100.856 178.567 100.829C178.583 100.802 178.605 100.779 178.63 100.76C178.682 100.722 178.747 100.706 178.811 100.715C178.875 100.725 178.933 100.76 178.971 100.811L187.464 112.608V100.129L178.596 87.8156C178.558 87.7635 178.541 87.6984 178.551 87.6344C178.561 87.5705 178.595 87.513 178.647 87.4745C178.7 87.4382 178.765 87.4239 178.829 87.4344C178.893 87.445 178.95 87.4797 178.988 87.5313L187.482 99.3276V81.1357C187.482 81.1043 187.488 81.0733 187.5 81.0443C187.512 81.0154 187.529 80.989 187.551 80.9669C187.574 80.9447 187.6 80.9271 187.629 80.9151C187.658 80.9031 187.689 80.8969 187.72 80.8969C187.784 80.8969 187.844 80.9221 187.889 80.9669C187.934 81.0116 187.959 81.0724 187.959 81.1357V98.6966L197.169 87.0197C197.208 86.9691 197.266 86.9363 197.329 86.9283C197.392 86.9203 197.456 86.9378 197.507 86.977C197.557 87.0162 197.59 87.0739 197.598 87.1373C197.606 87.2007 197.589 87.2648 197.55 87.3153L187.959 99.4755V111.982L197.169 100.3C197.209 100.25 197.267 100.217 197.331 100.21C197.395 100.202 197.459 100.22 197.51 100.26C197.534 100.279 197.555 100.303 197.57 100.331C197.586 100.358 197.596 100.388 197.599 100.419C197.603 100.451 197.6 100.482 197.592 100.512C197.583 100.543 197.569 100.571 197.55 100.595L187.959 112.761V123.364L197.169 111.687C197.208 111.636 197.266 111.603 197.329 111.595C197.392 111.587 197.456 111.605 197.507 111.644C197.557 111.683 197.59 111.741 197.598 111.804C197.606 111.868 197.589 111.932 197.55 111.982L187.959 124.143V124.376H187.186L178.607 112.437C178.569 112.385 178.553 112.32 178.562 112.256C178.572 112.192 178.607 112.135 178.658 112.096C178.712 112.06 178.777 112.046 178.84 112.056C178.904 112.067 178.961 112.101 179 112.153L187.464 123.932V113.392L187.447 113.415ZM173.354 143.483L172.485 142.289L159.978 138.81C159.928 138.793 159.886 138.758 159.861 138.711C159.835 138.665 159.828 138.611 159.841 138.56C159.856 138.508 159.89 138.464 159.937 138.437C159.984 138.411 160.039 138.404 160.091 138.418L172.075 141.76L166.862 134.631L154.355 131.152C154.303 131.138 154.259 131.103 154.233 131.056C154.206 131.009 154.199 130.954 154.213 130.902C154.23 130.852 154.265 130.81 154.311 130.785C154.358 130.76 154.412 130.753 154.463 130.766L166.453 134.108L160.29 125.672L147.783 122.193C147.758 122.186 147.734 122.175 147.713 122.159C147.693 122.143 147.675 122.123 147.663 122.1C147.65 122.077 147.642 122.052 147.639 122.026C147.637 122 147.639 121.973 147.647 121.948C147.653 121.923 147.665 121.899 147.681 121.878C147.697 121.857 147.717 121.839 147.739 121.826C147.762 121.813 147.787 121.804 147.813 121.801C147.839 121.797 147.866 121.799 147.891 121.806L159.881 125.149L151.211 113.29C151.18 113.246 151.167 113.192 151.176 113.138C151.184 113.085 151.213 113.038 151.257 113.006C151.278 112.99 151.302 112.978 151.327 112.971C151.353 112.965 151.38 112.964 151.406 112.968C151.432 112.972 151.457 112.982 151.479 112.996C151.502 113.01 151.521 113.029 151.535 113.051L160.506 125.319L160.466 113.159C160.468 113.105 160.49 113.054 160.528 113.016C160.566 112.978 160.617 112.956 160.671 112.955C160.724 112.956 160.775 112.978 160.812 113.016C160.849 113.055 160.87 113.106 160.87 113.159L160.961 125.854L167.124 134.285L167.033 122.124C167.028 122.095 167.029 122.065 167.037 122.036C167.045 122.008 167.059 121.981 167.078 121.958C167.097 121.936 167.121 121.917 167.148 121.905C167.175 121.892 167.205 121.886 167.234 121.886C167.264 121.886 167.294 121.892 167.321 121.905C167.348 121.917 167.372 121.936 167.391 121.958C167.41 121.981 167.424 122.008 167.432 122.036C167.44 122.065 167.441 122.095 167.436 122.124L167.527 134.825L172.735 141.948L172.644 129.788C172.645 129.734 172.667 129.684 172.706 129.647C172.744 129.61 172.795 129.589 172.848 129.589C172.901 129.589 172.952 129.61 172.989 129.647C173.026 129.684 173.047 129.735 173.047 129.788L173.138 142.488L173.883 143.506L173.354 143.483ZM174.776 143.483C176.595 140.714 181.848 131.624 178.71 122.875C181.149 124.484 183.759 125.819 186.492 126.854V166.331C183.61 154.233 178.187 147.002 174.878 143.483H174.776ZM188.42 163.898V127.036C191.021 126.092 193.515 124.876 195.861 123.409C190.853 131.436 196.464 140.709 197.942 142.897C193.734 149.381 190.524 156.46 188.42 163.898V163.898ZM219.641 125.416L209.517 128.259L204.514 135.08L214.241 132.369C214.262 132.362 214.284 132.359 214.306 132.361C214.328 132.363 214.349 132.37 214.368 132.381C214.387 132.391 214.404 132.406 214.417 132.424C214.431 132.441 214.44 132.461 214.445 132.482C214.456 132.524 214.45 132.568 214.429 132.605C214.408 132.642 214.373 132.67 214.332 132.681L204.207 135.524L199.977 141.306L209.704 138.594C209.746 138.583 209.789 138.589 209.827 138.61C209.864 138.632 209.891 138.666 209.903 138.708C209.914 138.75 209.908 138.794 209.887 138.832C209.866 138.871 209.831 138.899 209.789 138.912L199.664 141.755L199.13 142.482C199.033 142.426 198.942 142.374 198.851 142.312L199.153 141.897L199.232 131.596C199.228 131.572 199.229 131.547 199.235 131.524C199.241 131.5 199.252 131.479 199.268 131.46C199.283 131.441 199.302 131.426 199.324 131.416C199.346 131.406 199.37 131.4 199.394 131.4C199.419 131.4 199.443 131.406 199.464 131.416C199.486 131.426 199.506 131.441 199.521 131.46C199.537 131.479 199.548 131.5 199.554 131.524C199.56 131.547 199.561 131.572 199.556 131.596L199.488 141.465L203.672 135.655L203.746 125.354C203.746 125.332 203.751 125.311 203.759 125.291C203.767 125.272 203.779 125.254 203.795 125.239C203.81 125.224 203.828 125.212 203.848 125.205C203.868 125.197 203.89 125.194 203.911 125.194C203.933 125.194 203.954 125.199 203.974 125.207C203.994 125.215 204.012 125.227 204.028 125.243C204.043 125.258 204.055 125.276 204.063 125.296C204.072 125.316 204.076 125.338 204.076 125.359L204.002 135.223L209.005 128.401L209.079 118.099C209.079 118.078 209.083 118.056 209.091 118.036C209.1 118.016 209.112 117.998 209.127 117.983C209.142 117.968 209.161 117.955 209.181 117.947C209.201 117.939 209.222 117.935 209.244 117.935C209.265 117.935 209.286 117.939 209.306 117.947C209.326 117.956 209.343 117.968 209.358 117.983C209.373 117.999 209.385 118.017 209.392 118.037C209.4 118.057 209.404 118.078 209.403 118.099L209.335 127.963L216.611 118.008C216.637 117.974 216.676 117.952 216.718 117.945C216.761 117.939 216.804 117.949 216.839 117.974C216.856 117.987 216.871 118.003 216.882 118.021C216.894 118.039 216.901 118.06 216.904 118.081C216.908 118.102 216.906 118.124 216.901 118.145C216.896 118.165 216.886 118.185 216.873 118.202L209.841 127.826L219.568 125.115C219.609 125.104 219.653 125.11 219.69 125.131C219.727 125.153 219.755 125.187 219.767 125.228C219.772 125.249 219.772 125.27 219.768 125.291C219.765 125.312 219.757 125.332 219.745 125.35C219.733 125.367 219.718 125.382 219.7 125.394C219.682 125.405 219.662 125.413 219.641 125.416V125.416Z" fill="#263238"/>
<path d="M164.384 25.0586H76.6074C74.4881 25.0586 72.77 26.7766 72.77 28.896V193.243C72.77 195.362 74.4881 197.081 76.6074 197.081H164.384C166.503 197.081 168.221 195.362 168.221 193.243V28.896C168.221 26.7766 166.503 25.0586 164.384 25.0586Z" fill="#263238" stroke="#263238" stroke-linecap="round" stroke-linejoin="round"/>
<path d="M161.353 25.0586H73.5774C71.458 25.0586 69.74 26.7766 69.74 28.896V193.243C69.74 195.362 71.458 197.081 73.5774 197.081H161.353C163.473 197.081 165.191 195.362 165.191 193.243V28.896C165.191 26.7766 163.473 25.0586 161.353 25.0586Z" fill="white"/>
<path d="M165.191 89.9707L81.2576 197.087H161.359C162.376 197.086 163.35 196.681 164.069 195.961C164.787 195.242 165.191 194.267 165.191 193.25V89.9707Z" fill="#92E3A9"/>
<path opacity="0.5" d="M165.191 89.9707L81.2576 197.087H161.359C162.376 197.086 163.35 196.681 164.069 195.961C164.787 195.242 165.191 194.267 165.191 193.25V89.9707Z" fill="white"/>
<path d="M161.353 25.0586H73.5774C71.458 25.0586 69.74 26.7766 69.74 28.896V193.243C69.74 195.362 71.458 197.081 73.5774 197.081H161.353C163.473 197.081 165.191 195.362 165.191 193.243V28.896C165.191 26.7766 163.473 25.0586 161.353 25.0586Z" stroke="#263238" stroke-linecap="round" stroke-linejoin="round"/>
<path d="M124.083 35.3373H112.201C111.877 35.3373 111.566 35.2085 111.337 34.9793C111.108 34.7501 110.979 34.4392 110.979 34.115V34.115C110.979 33.9548 111.01 33.7961 111.072 33.6482C111.133 33.5002 111.224 33.3658 111.337 33.2528C111.451 33.1397 111.585 33.0502 111.734 32.9894C111.882 32.9286 112.041 32.8977 112.201 32.8985H124.083C124.405 32.8985 124.715 33.0266 124.943 33.2548C125.171 33.4829 125.299 33.7924 125.299 34.115C125.3 34.2753 125.269 34.4341 125.208 34.5824C125.147 34.7306 125.058 34.8654 124.945 34.979C124.832 35.0925 124.698 35.1827 124.55 35.2442C124.402 35.3057 124.243 35.3373 124.083 35.3373V35.3373Z" fill="#263238" stroke="#263238" stroke-linecap="round" stroke-linejoin="round"/>
<path d="M159.159 181.71H75.7603V35.4805H95.5269L97.7498 37.3224C98.5255 37.9685 99.5031 38.3225 100.513 38.323H135.39C136.437 38.3187 137.447 37.9349 138.233 37.2428L140.245 35.4805H159.159V181.71Z" fill="#263238" stroke="#263238" stroke-linecap="round" stroke-linejoin="round"/>
<path d="M91.4167 150.18H143.514" stroke="white" stroke-linecap="round" stroke-linejoin="round"/>
<path d="M91.4167 157.037H143.514" stroke="white" stroke-linecap="round" stroke-linejoin="round"/>
<path d="M91.4167 163.893H143.514" stroke="white" stroke-linecap="round" stroke-linejoin="round"/>
<path d="M96.2261 86.5256C92.952 91.2695 91.362 96.9737 91.7102 102.727C92.0583 108.481 94.3245 113.952 98.1468 118.266C101.969 122.581 107.127 125.49 112.797 126.529C118.466 127.568 124.321 126.677 129.425 123.999C134.529 121.32 138.588 117.009 140.954 111.753C143.32 106.497 143.856 100.599 142.477 95.0026C141.098 89.4058 137.884 84.4326 133.347 80.8773C128.81 77.3219 123.212 75.3895 117.448 75.3887C115.868 75.3888 114.29 75.5315 112.735 75.815" stroke="white" stroke-linecap="round" stroke-linejoin="round"/>
<path d="M100.621 81.6543C99.7546 82.404 98.938 83.2091 98.1763 84.0647" stroke="white" stroke-linecap="round" stroke-linejoin="round"/>
<path d="M137.592 109.747C142.326 98.631 137.153 85.7823 126.038 81.048C114.922 76.3137 102.074 81.4867 97.3392 92.6022C92.605 103.718 97.778 116.566 108.893 121.301C120.009 126.035 132.858 120.862 137.592 109.747Z" fill="#92E3A9"/>
<path d="M107.363 98.9025L115.663 108.334L129.239 89.1016" stroke="#263238" stroke-width="6" stroke-linecap="round" stroke-linejoin="round"/>
<path d="M138.255 37.2428C137.47 37.9349 136.46 38.3187 135.413 38.323H100.524C99.5145 38.3225 98.5369 37.9685 97.7611 37.3224L95.5383 35.4805H75.7603V50.4377H159.159V35.4805H140.268L138.255 37.2428Z" fill="#92E3A9" stroke="#263238" stroke-linecap="round" stroke-linejoin="round"/>
<path d="M120.132 186.217C120.133 185.841 120.022 185.473 119.814 185.16C119.606 184.847 119.309 184.603 118.962 184.458C118.615 184.314 118.233 184.276 117.864 184.349C117.495 184.422 117.156 184.603 116.89 184.869C116.624 185.135 116.443 185.473 116.37 185.842C116.297 186.211 116.335 186.593 116.48 186.941C116.624 187.288 116.868 187.584 117.181 187.792C117.495 188.001 117.862 188.111 118.238 188.11C118.74 188.109 119.221 187.909 119.575 187.554C119.93 187.199 120.13 186.719 120.132 186.217V186.217Z" fill="#263238" stroke="#263238" stroke-linecap="round" stroke-linejoin="round"/>
<path d="M45.9595 128.06L38.5235 194.574C38.5235 194.574 33.0716 199.315 33.5492 201.231C34.0267 203.147 40.32 200.094 41.1898 198.514C41.8071 197.198 42.2467 195.806 42.4973 194.375L58.1538 144.347L70.1946 197.996C70.1946 197.996 75.3111 202.197 78.1535 202.055C80.996 201.913 79.9841 200.793 78.3639 198.741C76.7437 196.689 73.0769 195.518 73.0769 195.518L71.269 126.371L45.9595 128.06Z" fill="#263238" stroke="#263238" stroke-linecap="round" stroke-linejoin="round"/>
<path d="M70.8611 125.209L45.8794 126.479L46.0526 129.885L71.0342 128.615L70.8611 125.209Z" fill="#263238" stroke="#263238" stroke-linecap="round" stroke-linejoin="round"/>
<path d="M61.3771 127.372C61.4169 128.219 60.3424 128.958 58.9667 129.032C57.5909 129.106 56.4312 128.481 56.4312 127.628C56.4312 126.775 57.4715 126.042 58.8416 125.974C60.2117 125.906 61.3316 126.531 61.3771 127.372Z" fill="white"/>
<path d="M57.0964 92.4199L47.7048 95.1715L48.8703 126.564L70.8996 126.018L68.1139 93.5683L57.0964 92.4199Z" fill="white" stroke="#263238" stroke-linecap="round" stroke-linejoin="round"/>
<path d="M52.9862 92.7734L51.7241 146.343L39.7629 140.55L45.0215 123.632L41.4343 95.0645L52.9862 92.7734Z" fill="#92E3A9" stroke="#263238" stroke-linecap="round" stroke-linejoin="round"/>
<path d="M62.4971 92.291L69.1826 145.457L80.5014 138.482L73.5544 122.183L74.2252 93.3996L62.4971 92.291Z" fill="#92E3A9" stroke="#263238" stroke-linecap="round" stroke-linejoin="round"/>
<path d="M55.3794 98.7707L57.2441 101.807L55.7546 122.943L59.2907 127.127L61.1212 122.102L58.2901 101.846L60.0354 98.9129L57.4999 95.627L55.3794 98.7707Z" fill="#263238" stroke="#263238" stroke-linecap="round" stroke-linejoin="round"/>
<path d="M57.6876 98.3674L54.1686 101.017L51.3489 94.1378L52.935 91.6819L61.5477 91.2441L63.583 93.99L61.9059 100.243L57.6876 98.3674Z" fill="white" stroke="#263238" stroke-linecap="round" stroke-linejoin="round"/>
<path d="M53.6514 89.0386L54.4416 93.4104L57.6877 98.3677L60.661 92.5235L60.4733 88.834L53.6514 89.0386Z" fill="white" stroke="#263238" stroke-linecap="round" stroke-linejoin="round"/>
<path d="M41.4342 95.0645L25.4822 114.376L36.0847 126.929L40.3541 124.155L35.1125 113.461L42.9351 107.799L41.4342 95.0645Z" fill="#92E3A9" stroke="#263238" stroke-linecap="round" stroke-linejoin="round"/>
<path d="M40.3542 124.154L40.9909 125.541L37.398 127.577L36.9148 126.462L40.3542 124.154Z" fill="white" stroke="#263238" stroke-linecap="round" stroke-linejoin="round"/>
<path d="M40.9908 125.541L44.6519 130.339L43.4467 131.823L42.5712 131.442L40.7975 132.954C40.7975 132.954 39.5013 132.59 39.3364 132.175C39.1716 131.76 37.4149 130.703 37.3751 129.998C37.3353 129.293 37.3751 127.576 37.3751 127.576L40.9908 125.541Z" fill="white" stroke="#263238" stroke-linecap="round" stroke-linejoin="round"/>
<path d="M83.111 97.1686C83.3271 96.605 83.3745 95.9907 83.2474 95.4006C82.9859 94.7241 82.406 92.3819 82.5197 91.6087C82.6334 90.8356 83.8045 89.7099 83.9069 88.7094C84.0092 87.7088 83.9069 86.7935 83.9069 86.2535C83.9163 86.1056 83.9732 85.9648 84.0691 85.8519C84.165 85.739 84.2948 85.6601 84.4391 85.6269C84.5835 85.5937 84.7347 85.6079 84.8703 85.6676C85.0059 85.7272 85.1186 85.829 85.1917 85.9578C85.7602 86.6173 86.1013 87.2938 85.8284 87.9931C85.6426 88.775 85.5547 89.5771 85.5669 90.3808C85.5669 90.3808 86.4765 91.6371 86.9767 92.4558C87.477 93.2744 87.4315 95.4177 87.0961 96.2761C86.7835 96.9262 86.3426 97.5063 85.8 97.9816L85.8568 99.4597L83.111 97.1686Z" fill="white" stroke="#263238" stroke-linecap="round" stroke-linejoin="round"/>
<path d="M84.771 89.1968C84.771 89.1968 84.373 90.3679 85.0723 90.6351C85.7715 90.9023 88.6311 91.3002 88.6595 90.3793C88.6879 89.4583 88.7448 88.9978 88.2843 89.0206C87.8238 89.0433 85.6806 89.0206 85.6806 89.0206C85.6806 89.0206 84.6857 88.9694 84.771 89.1968Z" fill="white" stroke="#263238" stroke-linecap="round" stroke-linejoin="round"/>
<path d="M85.095 94.9401C85.095 94.9401 84.8107 95.8099 85.3167 96.0089C85.8226 96.2079 87.8806 96.5092 87.8977 95.8213C87.9147 95.1334 87.9545 94.7923 87.6248 94.8094C87.295 94.8264 85.7487 94.8094 85.7487 94.8094C85.7487 94.8094 85.0324 94.7582 85.095 94.9401Z" fill="white" stroke="#263238" stroke-linecap="round" stroke-linejoin="round"/>
<path d="M84.7141 93.0802C84.7141 93.0802 84.3844 94.0921 84.9699 94.3252C85.5555 94.5583 87.9375 94.8937 87.9602 94.1092C87.983 93.3247 88.0284 92.9153 87.6419 92.9324C87.2553 92.9494 85.4702 92.9324 85.4702 92.9324C85.4702 92.9324 84.6402 92.8869 84.7141 93.0802Z" fill="white" stroke="#263238" stroke-linecap="round" stroke-linejoin="round"/>
<path d="M84.4923 91.2777C84.4923 91.2777 84.0943 92.4488 84.7993 92.716C85.5042 92.9832 88.3524 93.3812 88.3808 92.4602C88.4092 91.5392 88.4661 91.0788 88.0056 91.1015C87.5451 91.1242 85.4019 91.1015 85.4019 91.1015C85.4019 91.1015 84.407 91.056 84.4923 91.2777Z" fill="white" stroke="#263238" stroke-linecap="round" stroke-linejoin="round"/>
<path d="M82.7869 98.3339L83.2303 96.5488L86.3116 98.3851L85.7942 100.324L82.7869 98.3339Z" fill="white" stroke="#263238" stroke-linecap="round" stroke-linejoin="round"/>
<path d="M74.2251 93.3984L80.1261 105.957L83.0255 97.8782L85.868 100.584L82.9573 115.558C82.8665 116.02 82.643 116.444 82.3142 116.78C81.9854 117.115 81.5656 117.348 81.1066 117.448C80.6475 117.548 80.1692 117.512 79.7304 117.344C79.2915 117.176 78.9114 116.883 78.6367 116.502L73.9238 109.925L74.2251 93.3984Z" fill="#92E3A9" stroke="#263238" stroke-linecap="round" stroke-linejoin="round"/>
<path d="M50.9056 83.9324C50.9056 83.9324 49.7117 82.6589 49.5582 83.5913C49.4047 84.5236 49.8879 86.1325 50.6384 86.7067C51.3888 87.2808 52.0482 86.3315 52.0482 86.3315L50.9056 83.9324Z" fill="white" stroke="#263238" stroke-linecap="round" stroke-linejoin="round"/>
<path d="M62.1902 83.359C62.1902 83.359 63.2419 81.9718 63.4978 82.8814C63.7536 83.791 63.4239 85.4454 62.736 86.0934C62.0481 86.7415 61.292 85.8604 61.292 85.8604L62.1902 83.359Z" fill="white" stroke="#263238" stroke-linecap="round" stroke-linejoin="round"/>
<path d="M51.383 85.2408L50.246 82.8361C49.3309 81.5481 48.6975 80.0817 48.387 78.5326C47.8185 75.8947 48.7566 73.7003 49.9504 73.0238C50.6213 72.6222 51.4135 72.4731 52.1846 72.6031C52.1846 72.6031 52.412 71.0568 56.1641 69.7606C59.9162 68.4645 63.998 70.801 63.9354 71.6196C63.8729 72.4383 62.8724 72.8021 62.8724 72.8021C62.8724 72.8021 65.7944 73.8822 64.737 75.2637C64.085 76.1076 63.2411 76.7838 62.2754 77.2364C62.4874 77.933 62.6601 78.6409 62.7928 79.3569C62.9406 80.2722 62.1163 84.2062 62.1163 84.2062L60.0981 78.6747L53.765 78.9987C53.765 78.9987 53.3898 81.682 52.719 82.6371C52.2908 83.3621 52.0522 84.1833 52.0254 85.0248C52.0254 85.0248 51.7298 86.0367 51.383 85.2408Z" fill="#263238" stroke="#263238" stroke-linecap="round" stroke-linejoin="round"/>
<path d="M52.5086 75.2461C52.4978 76.897 52.3781 78.5455 52.1505 80.1807C52.0135 81.0906 51.5434 81.9171 50.8315 82.5001C50.8315 82.5001 51.6388 86.2465 52.6621 88.242C53.6854 90.2374 55.8116 91.8747 57.9548 91.653C60.0981 91.4312 61.8093 88.9981 62.0139 86.9401C62.2186 84.8821 61.2123 77.2756 61.2123 77.2756C61.2123 77.2756 54.5154 78.4524 52.5086 75.2461Z" fill="white" stroke="#263238" stroke-linecap="round" stroke-linejoin="round"/>
<path d="M53.0771 82.9385C53.4185 82.7364 53.8039 82.6205 54.2001 82.6007C54.5963 82.5809 54.9913 82.6578 55.3511 82.8248" stroke="#263238" stroke-linecap="round" stroke-linejoin="round"/>
<path d="M52.9861 81.2335C52.9861 81.2335 53.1168 80.0965 55.0156 79.9941" stroke="#263238" stroke-linecap="round" stroke-linejoin="round"/>
<path d="M58.04 79.7442C58.4697 79.5681 58.9444 79.5344 59.3946 79.648C59.8448 79.7616 60.2467 80.0164 60.5414 80.3752" stroke="#263238" stroke-linecap="round" stroke-linejoin="round"/>
<path d="M57.375 81.5801C57.375 81.5801 57.6763 83.8541 57.6934 84.1326C57.7104 84.4112 58.6598 84.4624 58.404 85.0422C58.1482 85.6221 57.3239 86.2361 56.636 85.7983" stroke="#263238" stroke-linecap="round" stroke-linejoin="round"/>
<path d="M58.4437 87.7031C58.4437 87.7031 57.7217 88.4024 56.2664 87.8111" stroke="#263238" stroke-linecap="round" stroke-linejoin="round"/>
<path d="M59.8821 82.3082C59.8821 82.7289 59.7058 83.0814 59.4443 83.0927C59.1828 83.1041 58.9554 82.7744 58.9327 82.3594C58.9099 81.9444 59.1089 81.5919 59.3704 81.5748C59.6319 81.5578 59.8423 81.8932 59.8821 82.3082Z" fill="#263238"/>
</svg>
