<svg width="201" height="208" viewBox="0 0 201 208" fill="none" xmlns="http://www.w3.org/2000/svg">
<path d="M39.9888 48.7715L193.477 201.16" stroke="#263238" stroke-miterlimit="10" stroke-linecap="round"/>
<path d="M60.2734 28.7213C60.6506 26.5719 60.4226 24.3522 59.6181 22.3399C58.8136 20.3275 57.4683 18.6121 55.7506 17.4082C54.0329 16.2044 52.0191 15.5656 49.9614 15.5719C47.9037 15.5782 45.8934 16.2293 44.1823 17.4436C42.9442 14.2242 40.6913 11.5621 37.8093 9.91331C34.9273 8.26447 31.5955 7.73139 28.3843 8.40534C25.1731 9.0793 22.2823 10.9184 20.2068 13.6077C18.1313 16.297 17.0002 19.6692 17.0072 23.1471C17.0072 23.3297 17.0072 23.5124 17.0072 23.6996C14.9772 24.3102 13.207 25.6449 11.9942 27.4791C10.7813 29.3134 10.1998 31.5353 10.3475 33.7715C10.4951 36.0077 11.3628 38.1216 12.8048 39.758C14.2467 41.3944 16.175 42.4534 18.2653 42.757V42.8595H59.8247C61.5893 42.9227 63.3052 42.2386 64.595 40.9576C65.8848 39.6765 66.6429 37.9036 66.7024 36.0288C66.7619 34.1539 66.118 32.3307 64.9123 30.9603C63.7067 29.5899 62.038 28.7845 60.2734 28.7213V28.7213Z" stroke="#263238" stroke-miterlimit="10"/>
<path d="M91.8896 73.1996V72.5312" stroke="#263238" stroke-linecap="round" stroke-linejoin="round"/>
<path d="M91.8896 71.2122V24.2793" stroke="#263238" stroke-linecap="round" stroke-linejoin="round" stroke-dasharray="2.97 2.97"/>
<path d="M91.8898 23.6195V22.9512H91.2607" stroke="#263238" stroke-linecap="round" stroke-linejoin="round"/>
<path d="M89.9939 22.9512H65.2554" stroke="#263238" stroke-linecap="round" stroke-linejoin="round" stroke-dasharray="3.02 3.02"/>
<path d="M64.6225 22.9512H63.9934" stroke="#263238" stroke-linecap="round" stroke-linejoin="round"/>
<path d="M93.9821 72.5527L91.8895 76.3981L89.801 72.5527H93.9821Z" fill="#263238"/>
<path d="M99.4299 55.6389H83.8462V32.6426H94.8923L99.4299 37.4236V55.6389Z" fill="white" stroke="#263238" stroke-linecap="round" stroke-linejoin="round"/>
<path d="M94.8921 32.6426V37.339H99.4297L94.8921 32.6426Z" fill="white" stroke="#263238" stroke-linecap="round" stroke-linejoin="round"/>
<path d="M86.2534 40.3828H97.0186" stroke="#263238" stroke-linecap="round" stroke-linejoin="round"/>
<path d="M86.2534 43.5H97.0186" stroke="#263238" stroke-linecap="round" stroke-linejoin="round"/>
<path d="M86.2534 46.6191H97.0186" stroke="#263238" stroke-linecap="round" stroke-linejoin="round"/>
<path d="M86.2534 49.7383H97.0186" stroke="#263238" stroke-linecap="round" stroke-linejoin="round"/>
<path d="M69.3362 33.3811H53.7524V10.3848H64.7986L69.3362 15.1658V33.3811Z" fill="white" stroke="#263238" stroke-linecap="round" stroke-linejoin="round"/>
<path d="M64.7986 10.3848V15.0812H69.3361L64.7986 10.3848Z" fill="white" stroke="#263238" stroke-linecap="round" stroke-linejoin="round"/>
<path d="M56.1594 18.125H66.9246" stroke="#263238" stroke-linecap="round" stroke-linejoin="round"/>
<path d="M56.1594 21.2441H66.9246" stroke="#263238" stroke-linecap="round" stroke-linejoin="round"/>
<path d="M56.1594 24.3633H66.9246" stroke="#263238" stroke-linecap="round" stroke-linejoin="round"/>
<path d="M56.1594 27.4805H66.9246" stroke="#263238" stroke-linecap="round" stroke-linejoin="round"/>
<path d="M30.511 179.326V52.3984" stroke="#263238" stroke-linecap="round" stroke-linejoin="round" stroke-dasharray="3 3"/>
<path d="M32.5993 53.049L30.5109 49.1992L28.4182 53.049H32.5993Z" fill="#263238"/>
<path d="M38.5292 158.198H22.9497V135.201H33.9917L38.5292 139.982V158.198Z" fill="white" stroke="#263238" stroke-linecap="round" stroke-linejoin="round"/>
<path d="M33.9915 135.201V139.898H38.529L33.9915 135.201Z" fill="white" stroke="#263238" stroke-linecap="round" stroke-linejoin="round"/>
<path d="M25.3567 142.941H36.1219" stroke="#263238" stroke-linecap="round" stroke-linejoin="round"/>
<path d="M25.3567 146.059H36.1219" stroke="#263238" stroke-linecap="round" stroke-linejoin="round"/>
<path d="M25.3567 149.178H36.1219" stroke="#263238" stroke-linecap="round" stroke-linejoin="round"/>
<path d="M25.3567 152.297H36.1219" stroke="#263238" stroke-linecap="round" stroke-linejoin="round"/>
<path d="M38.5292 97.1526H22.9497V74.1562H33.9917L38.5292 78.9373V97.1526Z" fill="white" stroke="#263238" stroke-linecap="round" stroke-linejoin="round"/>
<path d="M33.9915 74.1562V78.8527H38.529L33.9915 74.1562Z" fill="white" stroke="#263238" stroke-linecap="round" stroke-linejoin="round"/>
<path d="M25.3567 81.8965H36.1219" stroke="#263238" stroke-linecap="round" stroke-linejoin="round"/>
<path d="M25.3567 85.0156H36.1219" stroke="#263238" stroke-linecap="round" stroke-linejoin="round"/>
<path d="M25.3567 88.1328H36.1219" stroke="#263238" stroke-linecap="round" stroke-linejoin="round"/>
<path d="M25.3567 91.2539H36.1219" stroke="#263238" stroke-linecap="round" stroke-linejoin="round"/>
<path d="M160.574 4.81836H129.427L129.016 9.36772H160.574V4.81836Z" stroke="#B2B2B2" stroke-miterlimit="10"/>
<path d="M160.574 9.36914H129.427L129.016 13.9185H160.574V9.36914Z" stroke="#B2B2B2" stroke-miterlimit="10"/>
<path d="M160.574 13.918H129.427L129.016 18.4673H160.574V13.918Z" stroke="#B2B2B2" stroke-miterlimit="10"/>
<path d="M160.574 18.4668H129.427L129.016 23.0162H160.574V18.4668Z" stroke="#B2B2B2" stroke-miterlimit="10"/>
<path d="M160.574 23.0176H129.427L129.016 27.5669H160.574V23.0176Z" stroke="#B2B2B2" stroke-miterlimit="10"/>
<path d="M160.574 27.5664H129.427L129.016 32.1158H160.574V27.5664Z" stroke="#B2B2B2" stroke-miterlimit="10"/>
<path d="M160.574 32.1152H129.427L129.016 36.6646H160.574V32.1152Z" stroke="#B2B2B2" stroke-miterlimit="10"/>
<path d="M160.574 36.6641H129.427L129.016 41.2134H160.574V36.6641Z" stroke="#B2B2B2" stroke-miterlimit="10"/>
<path d="M160.574 41.2148H129.427L129.016 45.7642H160.574V41.2148Z" stroke="#B2B2B2" stroke-miterlimit="10"/>
<path d="M160.574 45.7637H129.427L129.016 50.313H160.574V45.7637Z" stroke="#B2B2B2" stroke-miterlimit="10"/>
<path d="M160.574 50.3125H129.427L129.016 54.8619H160.574V50.3125Z" stroke="#B2B2B2" stroke-miterlimit="10"/>
<path d="M160.574 54.8633H129.427L129.016 59.4126H160.574V54.8633Z" stroke="#B2B2B2" stroke-miterlimit="10"/>
<path d="M160.574 59.4121H129.427L129.016 63.9659H160.574V59.4121Z" stroke="#B2B2B2" stroke-miterlimit="10"/>
<path d="M160.574 63.9668H129.427L129.016 68.5162H160.574V63.9668Z" stroke="#B2B2B2" stroke-miterlimit="10"/>
<path d="M160.574 68.5156H129.427L129.016 73.065H160.574V68.5156Z" stroke="#B2B2B2" stroke-miterlimit="10"/>
<path d="M192.592 4.81836H161.446L161.031 9.36772H192.592V4.81836Z" stroke="#B2B2B2" stroke-miterlimit="10"/>
<path d="M192.592 9.36914H161.446L161.031 13.9185H192.592V9.36914Z" stroke="#B2B2B2" stroke-miterlimit="10"/>
<path d="M192.592 13.918H161.446L161.031 18.4673H192.592V13.918Z" stroke="#B2B2B2" stroke-miterlimit="10"/>
<path d="M192.592 18.4668H161.446L161.031 23.0162H192.592V18.4668Z" stroke="#B2B2B2" stroke-miterlimit="10"/>
<path d="M192.592 23.0176H161.446L161.031 27.5669H192.592V23.0176Z" stroke="#B2B2B2" stroke-miterlimit="10"/>
<path d="M192.592 27.5664H161.446L161.031 32.1158H192.592V27.5664Z" stroke="#B2B2B2" stroke-miterlimit="10"/>
<path d="M192.592 32.1152H161.446L161.031 36.6646H192.592V32.1152Z" stroke="#B2B2B2" stroke-miterlimit="10"/>
<path d="M192.592 36.6641H161.446L161.031 41.2134H192.592V36.6641Z" stroke="#B2B2B2" stroke-miterlimit="10"/>
<path d="M192.592 41.2148H161.446L161.031 45.7642H192.592V41.2148Z" stroke="#B2B2B2" stroke-miterlimit="10"/>
<path d="M192.592 45.7637H161.446L161.031 50.313H192.592V45.7637Z" stroke="#B2B2B2" stroke-miterlimit="10"/>
<path d="M192.592 50.3125H161.446L161.031 54.8619H192.592V50.3125Z" stroke="#B2B2B2" stroke-miterlimit="10"/>
<path d="M192.592 54.8633H161.446L161.031 59.4126H192.592V54.8633Z" stroke="#B2B2B2" stroke-miterlimit="10"/>
<path d="M192.592 59.4121H161.446L161.031 63.9659H192.592V59.4121Z" stroke="#B2B2B2" stroke-miterlimit="10"/>
<path d="M192.592 63.9668H161.446L161.031 68.5162H192.592V63.9668Z" stroke="#B2B2B2" stroke-miterlimit="10"/>
<path d="M192.592 68.5156H161.446L161.031 73.065H192.592V68.5156Z" stroke="#B2B2B2" stroke-miterlimit="10"/>
<path d="M194.148 1.29492H128.287V4.72588H194.148V1.29492Z" stroke="#B2B2B2" stroke-miterlimit="10"/>
<path d="M194.153 4.72656V65.1739" stroke="#B2B2B2" stroke-miterlimit="10"/>
<path d="M193.431 4.82422V46.2943" stroke="#B2B2B2" stroke-miterlimit="10"/>
<path d="M194.618 65.0391H193.733V66.5808H194.618V65.0391Z" fill="#263238" stroke="#B2B2B2" stroke-miterlimit="10"/>
<path d="M193.817 45.9648H192.932V47.5066H193.817V45.9648Z" fill="#263238" stroke="#B2B2B2" stroke-miterlimit="10"/>
<path d="M118.771 63.9629C118.771 63.9629 107.549 68.49 105.829 70.1609C104.11 71.8318 94.1836 105.785 94.1836 105.785H163.379C163.379 105.785 158.25 82.9802 156.992 75.2806C155.734 67.581 150.173 65.9234 147.347 65.3175C144.52 64.7115 118.771 63.9629 118.771 63.9629Z" fill="#263238" stroke="#263238" stroke-linecap="round" stroke-linejoin="round"/>
<path d="M137.668 70.4015L136.183 105.772H148.181L143.359 67.3047L137.668 70.4015Z" fill="#92E3A9" stroke="#263238" stroke-linecap="round" stroke-linejoin="round"/>
<path d="M119.728 60.9949C119.728 60.9949 117.874 63.8867 118.243 64.8091C118.612 65.7314 122.822 72.6958 127.029 73.4845C131.235 74.2732 136.553 71.7735 139.4 69.9199C142.248 68.0663 145.955 66.636 146.571 66.2394C147.188 65.8428 144.965 62.6748 143.975 62.1668C142.986 61.6588 141.749 60.8301 141.749 60.8301C141.749 60.8301 140.39 58.9898 140.142 58.6022C139.895 58.2145 139.769 57.5506 139.4 57.0248C139.263 56.8025 139.081 56.616 138.867 56.4794C138.652 56.3428 138.412 56.2596 138.163 56.2361C137.542 56.1069 136.678 59.3908 132.967 60.0503C129.256 60.7097 120.222 61.1019 120.222 61.1019L119.728 60.9949Z" fill="#92E3A9" stroke="#263238" stroke-linecap="round" stroke-linejoin="round"/>
<path d="M131.235 73.4845C131.235 73.4845 138.41 69.6704 139.274 66.6493C140.138 63.6283 140.142 58.6289 140.142 58.6289" stroke="#263238" stroke-linecap="round" stroke-linejoin="round"/>
<path d="M136.678 70.1976C136.678 70.1976 139.769 68.7539 140.759 66.78C141.748 64.8061 141.748 60.8672 141.748 60.8672" stroke="#263238" stroke-linecap="round" stroke-linejoin="round"/>
<path d="M115.748 44.6564C115.613 45.1911 118.511 60.4567 120.587 64.3154C122.663 68.1741 126.983 70.3753 129.578 69.092C132.581 67.5993 135.89 64.6719 137.324 61.4236C137.588 60.822 139.052 54.321 138.742 54.2097C138.742 54.2097 140.817 54.9449 141.677 50.9035C142.537 46.862 143.233 44.4737 142.197 42.2681C141.161 40.0625 135.286 34.9205 129.922 35.8518C124.559 36.783 116.612 41.1675 115.748 44.6564Z" fill="white" stroke="#263238" stroke-linecap="round" stroke-linejoin="round"/>
<path d="M130.098 39.8618C130.098 39.8618 122.491 46.0999 117.303 46.6613C112.116 47.2227 112.12 44.6562 112.12 44.6562C112.12 44.6562 105.377 46.6791 106.069 41.1673C106.761 35.6555 117.153 31.2443 117.153 31.2443C117.153 31.2443 113.521 30.1437 115.249 28.1252C116.976 26.1067 123.548 23.8967 127.872 24.4492C132.195 25.0017 134.095 26.1023 134.095 26.1023C134.095 26.1023 132.883 22.7961 135.479 23.8744C138.075 24.9527 140.297 30.3264 140.297 30.3264C140.297 30.3264 144.793 30.6962 145.141 31.9795C145.489 33.2627 142.545 33.6237 142.545 33.6237C142.545 33.6237 145.313 39.1355 143.929 42.259C142.545 45.3825 139.605 46.3004 139.434 46.8529C139.262 47.4054 139.954 49.4239 138.57 48.6887C137.186 47.9535 136.666 44.83 136.666 44.83C136.666 44.83 134.594 42.6288 134.418 41.7109C134.242 40.793 134.074 39.6925 134.074 39.6925C134.074 39.6925 132.862 43.5512 130.098 44.0992C127.335 44.6473 130.098 39.8618 130.098 39.8618Z" fill="#263238" stroke="#263238" stroke-linecap="round" stroke-linejoin="round"/>
<path d="M123.862 53.1074C123.862 53.1074 120.407 61.1902 122.307 61.3729C124.206 61.5556 125.938 59.35 125.938 59.35" fill="white"/>
<path d="M123.862 53.1074C123.862 53.1074 120.407 61.1902 122.307 61.3729C124.206 61.5556 125.938 59.35 125.938 59.35" stroke="#263238" stroke-linecap="round" stroke-linejoin="round"/>
<path d="M124.047 62.6606C124.047 62.6606 126.295 65.2316 130.442 61.7383" stroke="#263238" stroke-linecap="round" stroke-linejoin="round"/>
<path d="M128.576 54.7227C128.576 54.7227 128.996 56.3847 132.128 56.0817" stroke="#263238" stroke-linecap="round" stroke-linejoin="round"/>
<path d="M122.038 54.4199C122.038 54.4199 121.044 55.7789 119.908 55.7789" stroke="#263238" stroke-linecap="round" stroke-linejoin="round"/>
<path d="M135.345 50.5549C135.345 50.5549 127.331 50.3722 126.467 50.742C125.603 51.1119 125.431 53.313 125.947 54.7834C126.462 56.2538 127.679 58.2723 130.79 58.2723C133.902 58.2723 135.458 56.6192 136.494 53.4957C137.53 50.3722 135.345 50.5549 135.345 50.5549Z" stroke="#263238" stroke-linecap="round" stroke-linejoin="round"/>
<path d="M115.567 50.5549C115.567 50.5549 121.736 50.3722 122.403 50.742C123.07 51.1119 123.2 53.313 122.822 54.7834C122.445 56.2538 121.489 58.2723 119.094 58.2723C116.7 58.2723 115.5 56.6192 114.703 53.4957C113.907 50.3722 115.567 50.5549 115.567 50.5549Z" stroke="#263238" stroke-linecap="round" stroke-linejoin="round"/>
<path d="M136.871 51.5928L139.505 47.8945" stroke="#263238" stroke-linecap="round" stroke-linejoin="round"/>
<path d="M126.467 50.7207H122.361" stroke="#263238" stroke-linecap="round" stroke-linejoin="round"/>
<path d="M125.414 52.4922H122.869" stroke="#263238" stroke-linecap="round" stroke-linejoin="round"/>
<path d="M114.636 51.4107L116.59 50.0605" stroke="#263238" stroke-linecap="round" stroke-linejoin="round"/>
<path d="M130.493 53.8355C130.493 54.5217 130.186 55.0831 129.809 55.0831C129.432 55.0831 129.13 54.5217 129.13 53.8355C129.13 53.1493 129.436 52.5879 129.809 52.5879C130.182 52.5879 130.493 53.1449 130.493 53.8355Z" fill="#263238"/>
<path d="M121.46 53.3082C121.46 53.9988 121.158 54.5558 120.78 54.5558C120.403 54.5558 120.101 53.9988 120.101 53.3082C120.101 52.6175 120.407 52.0605 120.78 52.0605C121.153 52.0605 121.46 52.6175 121.46 53.3082Z" fill="#263238"/>
<path d="M118.243 49.0367C118.243 49.0367 120.717 47.9851 121.954 48.7738" stroke="#263238" stroke-width="2" stroke-linecap="round" stroke-linejoin="round"/>
<path d="M127.637 48.9072C129.329 48.3848 131.146 48.573 132.711 49.433" stroke="#263238" stroke-width="2" stroke-linecap="round" stroke-linejoin="round"/>
<path d="M88.1112 101.374C87.1873 100.765 86.1524 100.371 85.0747 100.217C83.9969 100.064 82.9008 100.154 81.8584 100.483C78.449 101.539 76.7463 104.712 76.7463 105.768H91.0929C90.9157 104.853 90.5585 103.989 90.0446 103.232C89.5307 102.475 88.8718 101.842 88.1112 101.374V101.374Z" fill="#808080" stroke="#263238" stroke-linecap="round" stroke-linejoin="round"/>
<path d="M79.3005 97.75C79.3005 97.75 77.4552 100.62 77.4552 101.676C77.4552 102.732 76.4613 103.788 77.8746 104.242C79.2879 104.697 80.1476 99.412 80.1476 98.8105C80.1476 98.2089 79.3005 97.75 79.3005 97.75Z" fill="white" stroke="#263238" stroke-linecap="round" stroke-linejoin="round"/>
<path d="M81.8586 97.5992C81.8586 97.5992 79.8708 97.1536 79.3005 97.7507C78.7301 98.3478 77.7404 103.641 77.883 104.243C78.0256 104.844 79.4431 104.996 79.8708 104.394C80.2986 103.793 81.8586 97.5992 81.8586 97.5992Z" fill="white" stroke="#263238" stroke-linecap="round" stroke-linejoin="round"/>
<path d="M90.3842 100.015C90.3842 100.015 84.4166 97.7468 83.1375 96.8423C81.8584 95.9378 81.1497 97.7335 80.722 98.8073C80.2942 99.8812 79.3003 103.637 79.3003 104.693C79.3003 105.749 80.8645 106.199 81.1497 104.992C81.4349 103.784 83.7078 99.8634 83.7078 99.8634L86.6896 101.071C86.6896 101.071 86.9747 101.516 85.6957 102.43C84.4166 103.343 82.5714 105.295 83.1375 105.598C83.7037 105.901 85.4105 105.749 85.9808 105.152C86.5512 104.555 89.5287 103.793 89.5287 103.793C89.5287 103.793 92.2294 105.607 92.7997 105.758C93.3701 105.91 96.9179 105.152 96.9179 105.152C96.9179 105.152 92.9381 101.53 92.372 101.08C91.7413 100.661 91.0759 100.305 90.3842 100.015V100.015Z" fill="white" stroke="#263238" stroke-linecap="round" stroke-linejoin="round"/>
<path d="M144.202 97.6702H141.22C139.941 97.6702 137.383 96.779 137.24 98.2717C137.098 99.7644 140.084 100.687 141.501 100.687C142.919 100.687 143.774 100.085 145.481 100.99C147.188 101.894 148.182 102.5 148.182 102.5L146.19 99.1762L144.202 97.6702Z" fill="white" stroke="#263238" stroke-linecap="round" stroke-linejoin="round"/>
<path d="M155.994 105.517C155.994 105.517 153.294 99.3281 152.015 97.3675C150.736 95.407 143.208 93.8965 142.369 93.8965C141.53 93.8965 139.383 98.8781 139.668 100.086C139.954 101.293 140.507 99.9341 140.927 99.1944C141.346 98.4548 142.914 96.3293 142.914 96.3293C142.914 96.3293 145.33 100.553 146.324 102.817C147.318 105.081 149.31 105.384 150.446 105.687C151.583 105.99 155.994 105.517 155.994 105.517Z" fill="white" stroke="#263238" stroke-linecap="round" stroke-linejoin="round"/>
<path d="M149.024 96.4504C149.024 96.4504 146.324 92.6763 144.902 93.2779C143.48 93.8794 141.211 101.129 140.926 102.033C140.641 102.938 142.348 102.336 142.629 101.588C142.91 100.839 145.472 96.9093 145.472 96.9093L147.745 98.4198" fill="white"/>
<path d="M149.024 96.4504C149.024 96.4504 146.324 92.6763 144.902 93.2779C143.48 93.8794 141.211 101.129 140.926 102.033C140.641 102.938 142.348 102.336 142.629 101.588C142.91 100.839 145.472 96.9093 145.472 96.9093L147.745 98.4198" stroke="#263238" stroke-linecap="round" stroke-linejoin="round"/>
<path d="M151.021 96.4504C151.021 96.4504 148.182 93.8838 147.184 94.1824C146.185 94.4809 142.638 101.882 143.208 102.203C143.778 102.524 144.911 101.9 145.481 100.995C146.051 100.091 147.184 97.9742 147.184 97.9742L149.318 99.6363" fill="white"/>
<path d="M151.021 96.4504C151.021 96.4504 148.182 93.8838 147.184 94.1824C146.185 94.4809 142.638 101.882 143.208 102.203C143.778 102.524 144.911 101.9 145.481 100.995C146.051 100.091 147.184 97.9742 147.184 97.9742L149.318 99.6363" stroke="#263238" stroke-linecap="round" stroke-linejoin="round"/>
<path d="M152.409 98.5257C152.409 98.5257 151.021 95.5537 150.027 96.0082C149.033 96.4627 145.623 102.046 146.617 102.046C147.611 102.046 150.597 98.7263 150.597 98.7263C150.597 98.7263 150.312 101.293 150.597 102.647" fill="white"/>
<path d="M152.409 98.5257C152.409 98.5257 151.021 95.5537 150.027 96.0082C149.033 96.4627 145.623 102.046 146.617 102.046C147.611 102.046 150.597 98.7263 150.597 98.7263C150.597 98.7263 150.312 101.293 150.597 102.647" stroke="#263238" stroke-linecap="round" stroke-linejoin="round"/>
<path d="M111.147 105.771H148.425V104.546H111.147V105.771Z" fill="#808080" stroke="#263238" stroke-linecap="round" stroke-linejoin="round"/>
<path d="M83.9343 78.7832H121.376L128.962 105.772H91.5207L83.9343 78.7832Z" fill="#808080" stroke="#263238" stroke-linecap="round" stroke-linejoin="round"/>
<path d="M68.187 105.771H200.468" stroke="#263238" stroke-linecap="round" stroke-linejoin="round"/>
<path d="M168.734 91.2832C168.734 91.2832 169.351 98.2476 168.982 100.484C168.613 102.721 167.619 102.98 167.372 104.049C167.124 105.118 168.982 104.971 170.093 104.838C171.205 104.704 172.442 99.0452 173.805 92.0897" fill="white"/>
<path d="M168.734 91.2832C168.734 91.2832 169.351 98.2476 168.982 100.484C168.613 102.721 167.619 102.98 167.372 104.049C167.124 105.118 168.982 104.971 170.093 104.838C171.205 104.704 172.442 99.0452 173.805 92.0897" stroke="#263238" stroke-linecap="round" stroke-linejoin="round"/>
<path d="M178.602 103.965C178.602 103.965 175.784 104.317 175.7 105.11C175.616 105.903 176.195 106.518 178.351 106.607C180.506 106.696 186.059 106.433 186.973 105.903C187.887 105.373 184.901 104.566 183.077 104.317C181.253 104.067 178.602 103.965 178.602 103.965Z" fill="white" stroke="#263238" stroke-linecap="round" stroke-linejoin="round"/>
<path d="M166.738 76.2977C166.738 76.2977 163.769 78.6638 163.522 84.0553C163.274 89.4468 167.476 93.5149 169.573 94.4373C171.67 95.3596 174.274 96.2775 175.025 96.9325C175.776 97.5875 175.956 101.388 177.004 103.113C178.602 105.728 182.943 106.793 188.386 106.134C193.829 105.474 193.934 99.1203 194.446 94.8294C195.05 89.7631 192.219 81.2971 188.755 79.0692C185.291 76.8413 179.726 77.4919 177.994 77.0953C176.833 76.7687 175.768 76.1357 174.899 75.2551C173.603 74.5158 172.124 74.2193 170.664 74.4059C169.203 74.5925 167.832 75.2531 166.738 76.2977V76.2977Z" fill="white" stroke="#263238" stroke-linecap="round" stroke-linejoin="round"/>
<path d="M176.007 75.0601C176.464 76.6196 174.61 78.6247 171.872 79.5159C169.133 80.407 166.541 79.8902 166.084 78.3306C165.627 76.7711 167.477 74.766 170.219 73.8748C172.962 72.9837 175.549 73.4916 176.007 75.0601Z" fill="#92E3A9" stroke="#263238" stroke-linecap="round" stroke-linejoin="round"/>
<path d="M170.785 81.1747C170.872 81.471 170.874 81.788 170.791 82.0855C170.708 82.383 170.543 82.6477 170.319 82.846C170.094 83.0443 169.819 83.1673 169.529 83.1996C169.238 83.2318 168.945 83.1717 168.687 83.027C168.429 82.8823 168.216 82.6594 168.077 82.3865C167.938 82.1136 167.878 81.8031 167.906 81.4941C167.933 81.1851 168.045 80.8916 168.23 80.6507C168.414 80.4099 168.661 80.2325 168.94 80.1409C169.314 80.0196 169.717 80.0602 170.063 80.2538C170.409 80.4475 170.668 80.7785 170.785 81.1747V81.1747Z" fill="#263238" stroke="#263238" stroke-linecap="round" stroke-linejoin="round"/>
<path d="M172.182 90.4961C172.182 90.4961 172.182 97.0684 171.934 99.8265C171.687 102.585 171.192 103.244 170.45 103.77C169.708 104.296 169.582 105.218 170.697 105.61C171.813 106.002 173.293 105.481 173.662 104.955C174.031 104.429 176.51 97.4605 178.242 91.5477" fill="white"/>
<path d="M172.182 90.4961C172.182 90.4961 172.182 97.0684 171.934 99.8265C171.687 102.585 171.192 103.244 170.45 103.77C169.708 104.296 169.582 105.218 170.697 105.61C171.813 106.002 173.293 105.481 173.662 104.955C174.031 104.429 176.51 97.4605 178.242 91.5477" stroke="#263238" stroke-linecap="round" stroke-linejoin="round"/>
<path d="M193.851 100.531C193.851 100.531 197.168 102.719 196.178 105.745C195.188 108.77 184.302 109.425 176.137 109.425C167.971 109.425 159.437 108.766 160.201 105.86C160.964 102.955 166.881 104.942 172.693 105.335C178.506 105.727 190.974 105.838 192.119 104.154C192.836 103.028 193.417 101.811 193.851 100.531V100.531Z" fill="white" stroke="#263238" stroke-linecap="round" stroke-linejoin="round"/>
<path d="M156.514 64.917C157.04 65.9612 157.648 66.9569 158.33 67.8934C158.721 68.4342 159.183 68.9128 159.701 69.3148C159.701 69.3148 161.316 66.5211 160.754 65.3403C160.192 64.1595 156.514 64.917 156.514 64.917Z" fill="white" stroke="#263238" stroke-linecap="round" stroke-linejoin="round"/>
<path d="M174.413 58.043C174.77 59.0111 174.952 60.042 174.95 61.0818C174.95 62.8641 174.593 63.5771 174.593 63.5771L171.435 62.071C171.435 62.071 173.44 58.5019 174.413 58.043Z" fill="white" stroke="#263238" stroke-linecap="round" stroke-linejoin="round"/>
<path d="M160.2 66.3174C160.2 66.3174 158.053 70.8489 159.584 73.7452C161.115 76.6415 164.616 77.6485 166.139 77.8445C167.661 78.0406 170.207 78.7089 172.488 76.4766C174.769 74.2442 175.08 74.0972 175.08 74.0972C175.08 74.0972 178.384 70.4524 177.801 66.5223C177.218 62.5923 172.324 61.6923 172.324 61.6923L174.421 58.043C174.421 58.043 171.44 59.1302 170.488 59.8253C169.894 60.2453 169.28 60.6305 168.647 60.9793C167.349 60.9625 166.059 61.195 164.839 61.6655C163.499 62.323 162.224 63.1184 161.031 64.0405C161.031 64.0405 156.267 64.388 156.523 64.9316C156.778 65.4752 160.2 66.3174 160.2 66.3174Z" fill="white" stroke="#263238" stroke-linecap="round" stroke-linejoin="round"/>
<path d="M166.533 73.2253C167.151 73.2857 167.773 73.1671 168.332 72.8822C169.217 72.4054 168.856 71.8707 168.307 71.8262C167.71 71.8473 167.129 72.0431 166.63 72.3921C166.219 72.6639 166.11 72.8867 166.533 73.2253Z" fill="white" stroke="#263238" stroke-linecap="round" stroke-linejoin="round"/>
<path d="M166.667 70.8686C166.667 70.8686 164.99 71.3676 164.851 72.4014C164.713 73.4351 165.812 74.1302 166.487 73.5465C166.882 73.2121 167.168 72.7537 167.305 72.2365C167.305 72.2365 169.02 73.2569 169.762 72.5796C170.504 71.9023 170.731 70.9443 170.072 70.4542C169.414 69.964 166.667 70.8686 166.667 70.8686Z" fill="white" stroke="#263238" stroke-linecap="round" stroke-linejoin="round"/>
<path d="M167.938 70.5234C167.938 70.5234 166.541 70.822 166.395 71.067C166.248 71.3121 166.814 72.3058 167.351 72.0785C167.546 71.9705 167.716 71.817 167.847 71.6295C167.979 71.442 168.068 71.2254 168.11 70.9958C168.13 70.9078 168.124 70.8155 168.093 70.7311C168.062 70.6467 168.008 70.5743 167.938 70.5234Z" fill="#263238" stroke="#263238" stroke-linecap="round" stroke-linejoin="round"/>
<path d="M164.289 69.2409C164.608 69.9137 164.6 70.6043 164.264 70.7781C163.929 70.9519 163.425 70.5553 163.09 69.887C162.754 69.2186 162.78 68.5235 163.09 68.3497C163.4 68.1759 163.971 68.568 164.289 69.2409Z" fill="#263238"/>
<path d="M169.359 67.6644C169.645 68.3551 169.598 69.0413 169.259 69.2017C168.919 69.3621 168.42 68.9254 168.126 68.2348C167.833 67.5441 167.887 66.8579 168.227 66.702C168.567 66.546 169.074 66.9738 169.359 67.6644Z" fill="#263238"/>
<path d="M132.107 203.785C131.059 203.729 130.03 203.469 129.071 203.019C128.815 202.901 128.614 202.679 128.512 202.404C128.409 202.128 128.414 201.82 128.526 201.549C128.637 201.277 128.845 201.063 129.105 200.954C129.364 200.846 129.654 200.851 129.91 200.969C130.878 201.415 132.12 201.673 132.455 201.522C133.063 200.795 134.007 196.384 132.791 194.281C132.726 194.133 132.629 194.003 132.508 193.902C132.387 193.801 132.245 193.733 132.094 193.702C131.402 193.604 130.379 194.357 130.019 194.718C129.815 194.919 129.545 195.027 129.266 195.016C128.988 195.006 128.726 194.878 128.536 194.662C128.346 194.446 128.245 194.158 128.255 193.863C128.265 193.568 128.385 193.288 128.589 193.087C128.781 192.895 130.522 191.224 132.363 191.492C132.822 191.565 133.259 191.75 133.641 192.031C134.023 192.312 134.339 192.682 134.565 193.114C136.355 196.206 135.126 202.101 133.755 203.268C133.276 203.633 132.696 203.815 132.107 203.785V203.785Z" fill="#263238" stroke="#263238" stroke-linecap="round" stroke-linejoin="round"/>
<path d="M130.249 190.576H118.662V206.916H130.249V190.576Z" fill="#263238" stroke="#263238" stroke-linecap="round" stroke-linejoin="round"/>
<path d="M119.715 189.683C119.715 189.683 119.715 188.324 122.059 186.965C124.403 185.606 125.691 183.56 124.408 179.706C123.124 175.852 123.342 173.129 125.905 170.861" stroke="#263238" stroke-linecap="round" stroke-linejoin="round"/>
<path d="M120.247 175.179C120.365 173.521 121.065 172.122 122.487 170.861" stroke="#263238" stroke-linecap="round" stroke-linejoin="round"/>
<path d="M120.994 179.705C120.761 179.018 120.572 178.315 120.427 177.602" stroke="#263238" stroke-linecap="round" stroke-linejoin="round"/>
<path d="M129.247 181.032C129.156 180.578 129.037 180.132 128.891 179.695C128.824 179.486 128.756 179.281 128.698 179.08" stroke="#263238" stroke-linecap="round" stroke-linejoin="round"/>
<path d="M124.194 189.681C124.194 189.681 124.194 188.321 126.542 186.962C128.085 186.071 129.163 184.882 129.364 183.086" stroke="#263238" stroke-linecap="round" stroke-linejoin="round"/>
<path d="M150.06 187.346C150.06 187.346 148.76 185.59 147.347 184.842C145.934 184.093 142.986 183.46 142.986 183.46C142.986 183.46 145.577 182.837 147.599 183.336C149.62 183.835 151.021 185.969 151.021 185.969C151.021 185.969 150.429 185.078 149.603 182.458C148.777 179.838 148.764 174.192 148.764 174.192C150.021 175.754 151.014 177.534 151.7 179.455C152.271 181.201 152.666 183.007 152.878 184.842C152.878 184.842 152.644 180.457 153.352 177.953C154.061 175.449 156.061 172.316 156.061 172.316C156.061 172.316 156.179 177.824 155.357 180.831C154.535 183.839 154.174 185.216 154.174 185.216C154.692 183.654 155.54 182.239 156.653 181.081C158.418 179.33 162.662 177.824 162.662 177.824C162.662 177.824 160.658 181.709 159.362 182.961C158.066 184.213 156.77 185.59 156.77 185.59C157.93 184.809 159.285 184.416 160.658 184.463C163.136 184.463 166.08 186.218 166.08 186.218C166.08 186.218 157.479 186.094 155.827 187.595L150.06 187.346Z" fill="#92E3A9" stroke="#263238" stroke-miterlimit="10"/>
<path d="M151.658 186.668L150.207 185.604" stroke="#263238" stroke-linecap="round" stroke-linejoin="round"/>
<path d="M153.222 187.504L151.214 181.805" stroke="#263238" stroke-linecap="round" stroke-linejoin="round"/>
<path d="M153 188.216L154.342 179.906" stroke="#263238" stroke-linecap="round" stroke-linejoin="round"/>
<path d="M153.222 187.504L157.022 182.518" stroke="#263238" stroke-linecap="round" stroke-linejoin="round"/>
<path d="M152.48 186.99L158.028 185.484" stroke="#263238" stroke-linecap="round" stroke-linejoin="round"/>
<path d="M159.949 206.917H148.186L147.653 202.377C147.266 199.062 147.248 195.71 147.599 192.391L148.186 186.844H159.97L160.549 192.271C160.906 195.586 160.892 198.935 160.507 202.247L159.949 206.917Z" fill="#263238"/>
<path d="M160.729 198.389L158.964 186.991L156.602 206.654L152.48 186.991L150.002 206.908L148.165 186.844" fill="#263238"/>
<path d="M160.729 198.389L158.964 186.991L156.602 206.654L152.48 186.991L150.002 206.908L148.165 186.844" stroke="white" stroke-linecap="round" stroke-linejoin="round"/>
<path d="M159.949 206.917H148.186L147.653 202.377C147.266 199.062 147.248 195.71 147.599 192.391L148.186 186.844H159.97L160.549 192.271C160.906 195.586 160.892 198.935 160.507 202.247L159.949 206.917Z" stroke="#263238" stroke-miterlimit="10"/>
<path d="M51.5047 129.643C59.9585 129.643 66.8116 122.361 66.8116 113.379C66.8116 104.397 59.9585 97.1152 51.5047 97.1152C43.0509 97.1152 36.1978 104.397 36.1978 113.379C36.1978 122.361 43.0509 129.643 51.5047 129.643Z" stroke="#B2B2B2" stroke-miterlimit="10"/>
<path d="M51.5043 126.391C58.2674 126.391 63.7499 120.566 63.7499 113.38C63.7499 106.194 58.2674 100.369 51.5043 100.369C44.7413 100.369 39.2588 106.194 39.2588 113.38C39.2588 120.566 44.7413 126.391 51.5043 126.391Z" stroke="#B2B2B2" stroke-miterlimit="10"/>
<path d="M49.5964 113.378C49.5956 113.78 49.7068 114.172 49.916 114.506C50.1251 114.84 50.4229 115.101 50.7714 115.255C51.12 115.409 51.5038 115.45 51.8742 115.372C52.2447 115.294 52.585 115.101 52.8523 114.818C53.1196 114.535 53.3017 114.173 53.3757 113.78C53.4497 113.387 53.4121 112.979 53.2678 112.608C53.1235 112.237 52.879 111.92 52.5651 111.697C52.2512 111.474 51.8821 111.355 51.5046 111.355C50.9992 111.355 50.5145 111.568 50.1568 111.948C49.7991 112.327 49.5976 112.841 49.5964 113.378V113.378Z" stroke="#B2B2B2" stroke-miterlimit="10"/>
<path d="M51.5044 115.402V123.071" stroke="#B2B2B2" stroke-miterlimit="10"/>
<path d="M53.4084 113.379H57.8915" stroke="#B2B2B2" stroke-miterlimit="10"/>
<path d="M179.219 206.916H1" stroke="#263238" stroke-linecap="round" stroke-linejoin="round"/>
<path d="M83.0367 149.473C83.0367 149.473 81.917 157.627 83.0367 159.16C84.1565 160.692 86.7146 161.878 90.3925 163.067C94.0703 164.257 96.4691 161.704 99.9834 165.955C103.498 170.205 106.383 181.073 108.299 184.473C110.216 187.873 112.46 193.139 112.959 197.065C113.458 200.991 111.839 203.178 108.639 203.691C105.439 204.203 99.8324 195.875 99.2076 194.686C98.5827 193.496 95.5087 189.575 95.5087 189.575C95.5087 189.575 93.7474 203.339 93.7474 204.016C93.7474 204.693 93.9068 206.903 93.9068 206.903H47.856C47.856 206.903 51.3745 186.518 52.3306 179.38C53.2868 172.242 52.8129 167.487 56.6501 164.939C60.4873 162.39 64.0058 163.072 66.564 162.221C69.1221 161.37 70.7199 160.692 70.8835 159.164C71.047 157.636 71.0428 150.497 71.0428 150.497L83.0367 149.473Z" fill="#92E3A9" stroke="#263238" stroke-linecap="round" stroke-linejoin="round"/>
<path d="M49.5165 198.877L28.4558 204.768L30.1207 206.924H54.1379" fill="#92E3A9"/>
<path d="M49.5165 198.877L28.4558 204.768L30.1207 206.924H54.1379" stroke="#263238" stroke-linecap="round" stroke-linejoin="round"/>
<path d="M25.7721 202.519C24.8489 201.91 23.8147 201.515 22.7377 201.362C21.6607 201.208 20.5652 201.299 19.5235 201.628C16.1141 202.684 14.4072 205.856 14.4072 206.912H28.758C28.5806 205.997 28.2228 205.133 27.7081 204.376C27.1934 203.618 26.5336 202.986 25.7721 202.519Z" fill="#808080" stroke="#263238" stroke-linecap="round" stroke-linejoin="round"/>
<path d="M16.9653 198.896C16.9653 198.896 15.1159 201.766 15.1159 202.822C15.1159 203.878 14.122 204.934 15.5353 205.389C16.9485 205.843 17.8082 200.558 17.8082 199.957C17.8082 199.355 16.9653 198.896 16.9653 198.896Z" fill="white" stroke="#263238" stroke-linecap="round" stroke-linejoin="round"/>
<path d="M19.5236 198.749C19.5236 198.749 17.5316 198.303 16.9655 198.896C16.3993 199.488 15.4012 204.786 15.5438 205.388C15.6864 205.989 17.1081 206.141 17.5316 205.539C17.9552 204.938 19.5236 198.749 19.5236 198.749Z" fill="white" stroke="#263238" stroke-linecap="round" stroke-linejoin="round"/>
<path d="M34.0166 203.298L30.6616 202.893C30.472 202.651 30.2644 202.426 30.041 202.22C29.4079 201.801 28.7396 201.446 28.0448 201.159C28.0448 201.159 22.0772 198.891 20.7981 197.987C19.519 197.082 18.8103 198.878 18.3867 199.952C17.9632 201.026 16.9651 204.782 16.9651 205.838C16.9651 206.894 18.5251 207.344 18.8103 206.137C19.0955 204.929 21.3685 201.008 21.3685 201.008L24.3502 202.215C24.3502 202.215 24.6353 202.661 23.3563 203.574C22.0772 204.488 20.232 206.439 20.7981 206.742C21.3643 207.045 23.0711 206.894 23.6414 206.297C24.2118 205.7 27.1935 204.96 27.1935 204.96C27.1935 204.96 29.8942 206.774 30.4604 206.925C30.8268 206.982 31.1972 207.006 31.5675 206.996H35.0315C35.1799 206.339 35.1644 205.653 34.9864 205.004C34.8084 204.355 34.4741 203.767 34.0166 203.298V203.298Z" fill="white" stroke="#263238" stroke-linecap="round" stroke-linejoin="round"/>
<path d="M23.7212 203.296C23.7212 203.296 24.9793 201.773 25.9984 201.59" stroke="#263238" stroke-linecap="round" stroke-linejoin="round"/>
<path d="M106.249 190.961C107.767 191.485 109.256 192.102 110.706 192.81C112.774 193.848 113.537 196.375 113.223 199.516C112.908 202.657 110.828 205.068 107.771 204.141C104.714 203.214 103.091 200.577 102.982 198.473C102.873 196.37 101.988 191.652 106.249 190.961Z" fill="white" stroke="#263238" stroke-linecap="round" stroke-linejoin="round"/>
<path d="M73.9198 172.935C66.7235 172.663 62.0559 167.953 59.2671 163.64C62.0727 162.642 64.6014 162.882 66.5641 162.232C69.1222 161.381 70.72 160.704 70.8836 159.175C71.0471 157.647 71.0429 150.509 71.0429 150.509L83.0369 149.488C83.0369 149.488 81.9172 157.642 83.0369 159.175C84.1566 160.708 86.7147 161.893 90.3926 163.083C92.003 163.6 93.3659 163.404 94.6911 163.377C92.5314 165.881 85.1169 173.358 73.9198 172.935Z" fill="white" stroke="#263238" stroke-linecap="round" stroke-linejoin="round"/>
<path d="M71.022 155.615C71.9245 156.542 72.9234 157.357 73.9995 158.043C75.9202 159.193 79.208 158.173 80.1684 156.898C80.6381 156.274 81.6068 155.045 82.6427 153.565C82.7894 151.413 83.062 149.488 83.062 149.488L71.0681 150.509C71.0681 150.509 71.0429 153.187 71.022 155.615Z" fill="#263238" stroke="#263238" stroke-linecap="round" stroke-linejoin="round"/>
<path d="M107.649 176.041C107.649 176.041 101.12 185.176 100.466 188.994C99.8113 192.813 97.7439 202.05 97.7439 202.05C97.7439 202.05 91.4324 204.942 87.4064 205.057C83.3805 205.173 76.4148 204.478 76.4148 204.478C76.4148 204.478 80.8769 192.247 82.6172 186.102C84.3576 179.958 84.7938 176.505 84.7938 176.505C84.7938 176.505 94.6992 177.89 100.357 176.505L108.845 174.424L107.649 176.041Z" fill="white" stroke="#263238" stroke-linecap="round" stroke-linejoin="round"/>
<path d="M107.339 195.192C107.339 195.192 106.542 184.498 105.582 184.15C104.622 183.803 98.8722 182.961 97.266 183.299C95.6598 183.638 95.1692 184.32 96.4692 184.658C97.7693 184.997 99.9835 185.34 100.944 185.51C102.028 185.783 103.097 186.124 104.144 186.53C104.144 186.53 100.625 187.038 99.1867 187.038C97.7483 187.038 94.3891 188.566 94.2298 189.266C94.1354 189.669 94.1925 190.096 94.3891 190.455C94.3046 190.806 94.3134 191.175 94.4143 191.52C94.5737 192.202 98.3857 191.863 99.3461 192.033C100.306 192.202 102.223 192.692 102.223 192.692C102.223 192.692 96.6286 192.354 96.6286 193.543C96.6286 194.733 99.0232 194.559 99.9835 194.559C101.146 194.696 102.252 195.165 103.183 195.918C103.661 196.431 103.502 199.095 104.94 199.608C105.557 199.865 106.203 200.036 106.861 200.116" fill="white"/>
<path d="M107.339 195.192C107.339 195.192 106.542 184.498 105.582 184.15C104.622 183.803 98.8722 182.961 97.266 183.299C95.6598 183.638 95.1692 184.32 96.4692 184.658C97.7693 184.997 99.9835 185.34 100.944 185.51C102.028 185.783 103.097 186.124 104.144 186.53C104.144 186.53 100.625 187.038 99.1867 187.038C97.7483 187.038 94.3891 188.566 94.2298 189.266C94.1354 189.669 94.1925 190.096 94.3891 190.455C94.3046 190.806 94.3134 191.175 94.4143 191.52C94.5737 192.202 98.3857 191.863 99.3461 192.033C100.306 192.202 102.223 192.692 102.223 192.692C102.223 192.692 96.6286 192.354 96.6286 193.543C96.6286 194.733 99.0232 194.559 99.9835 194.559C101.146 194.696 102.252 195.165 103.183 195.918C103.661 196.431 103.502 199.095 104.94 199.608C105.557 199.865 106.203 200.036 106.861 200.116" stroke="#263238" stroke-linecap="round" stroke-linejoin="round"/>
<path d="M94.3889 190.438C94.3889 190.438 100.784 188.906 103.984 190.608" stroke="#263238" stroke-linecap="round" stroke-linejoin="round"/>
<path d="M59.6989 181.264C59.6989 181.264 57.1408 190.777 57.623 194.185C58.1053 197.594 59.5395 201.489 59.6989 202.001C59.8583 202.513 59.1369 206.541 59.1369 206.541" stroke="#263238" stroke-linecap="round" stroke-linejoin="round"/>
<path d="M54.4275 128.591C55.866 127.063 54.4275 126.212 54.5869 124.514C54.7463 122.816 56.3441 121.965 57.1451 121.627C57.946 121.288 57.6231 120.437 57.7867 118.566C57.9502 116.694 59.8626 116.017 61.1416 115.509C62.4207 115.001 61.6239 114.172 62.2613 112.791C62.8988 111.41 66.4215 111.771 66.4215 111.771C66.4215 111.771 67.2183 110.242 68.1786 110.242C69.139 110.242 69.7764 111.601 71.0555 110.411C72.3346 109.222 73.4543 108.714 75.2156 109.391C75.7845 109.632 76.3689 109.828 76.9644 109.979C77.5614 109.829 78.1473 109.632 78.7173 109.391C80.4745 108.714 81.5942 109.222 82.8733 110.411C84.1524 111.601 84.794 110.242 85.7543 110.242C86.7147 110.242 87.5115 111.771 87.5115 111.771C87.5115 111.771 91.03 111.432 91.6716 112.791C92.3133 114.15 91.5081 114.997 92.7871 115.509C94.0662 116.021 95.9869 116.699 96.1421 118.566C96.2973 120.433 95.9827 121.284 96.7837 121.627C97.5847 121.97 99.1825 122.812 99.3419 124.514C99.5012 126.216 98.0838 127.063 99.5012 128.591C100.919 130.119 102.378 131.309 101.099 132.33C99.8199 133.35 98.5409 133.689 98.7002 135.217C98.8596 136.745 100.462 138.617 99.1825 139.463C97.9034 140.31 96.6244 140.314 96.6244 141.843C96.6244 143.371 97.1024 145.581 95.664 145.92C94.2256 146.258 92.1455 145.92 92.1455 146.94C92.1455 147.96 91.9861 149.827 89.7467 149.489C87.5073 149.15 86.7105 148.468 86.2282 149.827C85.746 151.186 84.6304 152.055 83.3514 151.868C82.0723 151.681 80.3109 151.53 79.1912 152.545C78.6393 153.002 77.9814 153.291 77.2873 153.383V153.441C77.1783 153.441 77.0692 153.441 76.9602 153.441C76.8512 153.441 76.7421 153.441 76.6331 153.441V153.383C75.9394 153.29 75.2819 153 74.7292 152.545C73.6094 151.53 71.8523 151.699 70.5732 151.868C69.2941 152.038 68.1744 151.186 67.6964 149.827C67.2183 148.468 66.4173 149.15 64.1779 149.489C61.9384 149.827 61.7791 147.96 61.7791 146.94C61.7791 145.92 59.6822 146.263 58.2606 145.92C56.8389 145.577 57.3002 143.371 57.3002 141.843C57.3002 140.314 56.0421 140.314 54.7421 139.463C53.442 138.612 55.0608 136.745 55.2202 135.217C55.3795 133.689 54.1004 133.35 52.8214 132.33C51.5423 131.309 52.9891 130.119 54.4275 128.591Z" fill="#263238" stroke="#263238" stroke-linecap="round" stroke-linejoin="round"/>
<path d="M67.2476 137.981C67.2476 137.981 65.4275 135.08 64.333 136.435C63.2384 137.789 63.6075 141.269 65.0627 143.011C66.5179 144.754 68.1534 144.17 68.1534 144.17" fill="white"/>
<path d="M67.2476 137.981C67.2476 137.981 65.4275 135.08 64.333 136.435C63.2384 137.789 63.6075 141.269 65.0627 143.011C66.5179 144.754 68.1534 144.17 68.1534 144.17" stroke="#263238" stroke-linecap="round" stroke-linejoin="round"/>
<path d="M86.7102 137.835C86.7102 137.835 88.8364 135.161 89.7716 136.659C90.7068 138.156 89.9603 141.56 88.3248 143.097C86.6892 144.634 85.125 143.868 85.125 143.868" fill="white"/>
<path d="M86.7102 137.835C86.7102 137.835 88.8364 135.161 89.7716 136.659C90.7068 138.156 89.9603 141.56 88.3248 143.097C86.6892 144.634 85.125 143.868 85.125 143.868" stroke="#263238" stroke-linecap="round" stroke-linejoin="round"/>
<path d="M85.9512 130.971C85.6304 131.28 85.2484 131.509 84.8333 131.641C84.4181 131.773 83.9805 131.804 83.5524 131.733C82.7598 131.61 81.9909 131.353 81.2753 130.971C81.2753 130.971 79.8368 131.991 78.7591 131.608C77.6813 131.225 76.4777 130.842 76.4777 130.842C75.6893 131.356 74.7485 131.538 73.8399 131.354C72.1624 131.096 71.6801 130.717 71.6801 130.717C71.6801 130.717 70.7198 131.608 69.7636 131.608C69.1619 131.606 68.561 131.563 67.9645 131.479C67.7019 131.617 67.4177 131.703 67.1258 131.733H66.2871C66.2871 131.733 65.9306 139.379 67.1258 144.859C68.321 150.34 72.997 154.417 74.9219 155.553C76.8468 156.69 80.1346 155.683 81.095 154.408C82.0553 153.134 85.1167 149.311 86.5467 145.996C87.9768 142.681 88.4674 132.998 88.4674 132.361C88.4674 131.724 86.5383 132.499 85.9512 130.971Z" fill="white" stroke="#263238" stroke-linecap="round" stroke-linejoin="round"/>
<path d="M79.1829 135.432C79.0196 135.506 78.8813 135.631 78.7862 135.79C78.6911 135.949 78.6437 136.135 78.6503 136.324C78.6922 137.767 78.8935 141.198 79.8371 141.8C81.0365 142.562 86.635 143.136 87.9938 142.178C88.7109 141.671 90.2709 137.21 89.6712 135.94C89.0715 134.67 83.9804 133.338 79.1829 135.432Z" stroke="#263238" stroke-linecap="round" stroke-linejoin="round"/>
<path d="M75.4797 135.432C75.6429 135.506 75.7812 135.631 75.8763 135.79C75.9714 135.949 76.0188 136.135 76.0123 136.324C75.9704 137.767 75.7691 141.198 74.8255 141.8C73.6261 142.562 68.0275 143.136 66.6688 142.178C65.9517 141.671 64.3916 137.21 64.9913 135.94C65.591 134.67 70.6821 133.338 75.4797 135.432Z" stroke="#263238" stroke-linecap="round" stroke-linejoin="round"/>
<path d="M79.1829 135.431C79.1829 135.431 76.9602 134.919 75.5176 135.685" stroke="#263238" stroke-linecap="round" stroke-linejoin="round"/>
<path d="M78.3986 136.961H76.1172" stroke="#263238" stroke-linecap="round" stroke-linejoin="round"/>
<path d="M81.9967 140.276C82.3951 140.276 82.718 139.647 82.718 138.872C82.718 138.097 82.3951 137.469 81.9967 137.469C81.5983 137.469 81.2754 138.097 81.2754 138.872C81.2754 139.647 81.5983 140.276 81.9967 140.276Z" fill="#263238"/>
<path d="M73.84 140.276C74.2383 140.276 74.5613 139.647 74.5613 138.872C74.5613 138.097 74.2383 137.469 73.84 137.469C73.4416 137.469 73.1187 138.097 73.1187 138.872C73.1187 139.647 73.4416 140.276 73.84 140.276Z" fill="#263238"/>
<path d="M78.1511 139.762C78.1511 139.762 78.0295 141.544 78.6292 142.181C79.2289 142.818 79.946 143.331 79.1073 143.964C78.2686 144.596 77.5514 145.109 76.3521 143.964" stroke="#263238" stroke-linecap="round" stroke-linejoin="round"/>
<path d="M80.315 146.643C80.315 146.643 77.3165 148.176 74.6787 146.135" stroke="#263238" stroke-linecap="round" stroke-linejoin="round"/>
<path d="M84.2739 136.069C83.7997 135.692 83.244 135.448 82.6579 135.359C82.0718 135.269 81.4739 135.337 80.9189 135.557" stroke="#263238" stroke-linecap="round" stroke-linejoin="round"/>
<path d="M74.4398 135.939C74.4398 135.939 71.6804 134.411 70.1204 136.83" stroke="#263238" stroke-linecap="round" stroke-linejoin="round"/>
<path d="M84.3957 160.277L75.0396 184.744L69.5208 161.298" stroke="#263238" stroke-linecap="round" stroke-linejoin="round"/>
<path d="M73.8398 185.894C73.8398 186.171 73.9173 186.443 74.0625 186.674C74.2076 186.904 74.4139 187.084 74.6553 187.191C74.8967 187.297 75.1623 187.325 75.4186 187.27C75.6748 187.216 75.9102 187.083 76.0949 186.886C76.2797 186.69 76.4055 186.44 76.4565 186.168C76.5075 185.895 76.4813 185.613 76.3813 185.357C76.2813 185.1 76.112 184.881 75.8948 184.727C75.6775 184.573 75.4221 184.49 75.1609 184.49C74.8105 184.49 74.4745 184.638 74.2268 184.901C73.979 185.165 73.8398 185.522 73.8398 185.894V185.894Z" fill="#263238" stroke="#263238" stroke-linecap="round" stroke-linejoin="round"/>
<path d="M45.3525 206.92H81.4937V205.73H45.3525V206.92Z" fill="#808080" stroke="#263238" stroke-linecap="round" stroke-linejoin="round"/>
<path d="M18.9697 180.75H55.266L62.6217 206.914H26.3254L18.9697 180.75Z" fill="#808080" stroke="#263238" stroke-linecap="round" stroke-linejoin="round"/>
</svg>
