<svg width="170" height="170" viewBox="0 0 170 170" fill="none" xmlns="http://www.w3.org/2000/svg">
<path d="M62.2821 0.460342C60.722 0.9561 58.2045 3.22241 57.389 4.85132C56.7863 6.0553 56.6799 7.33011 56.5381 15.935L56.3608 25.6731L53.3824 25.9564C46.1492 26.5938 38.8451 28.7538 32.0728 32.2595C26.3997 35.1987 21.9322 38.4565 17.3582 43.0245C8.28129 52.0898 2.78548 62.8548 0.445328 76.1339C-0.228352 79.9938 -0.121981 90.6879 0.658069 94.7956C1.33175 98.4429 2.89185 104.002 4.06193 106.942C5.51566 110.589 8.67132 116.326 11.0824 119.69C14.1317 124.01 20.3366 130.171 24.6269 133.217C33.172 139.272 43.5254 143.132 53.5597 144.052L56.3608 144.3L56.5381 154.038C56.6799 162.643 56.7863 163.918 57.389 165.122C58.24 166.857 60.7574 169.017 62.4948 169.549C64.5513 170.15 162.022 170.15 164.114 169.549C166.064 168.982 169.007 166.043 169.575 164.095C169.894 162.962 170 147.629 170 97.6993V32.7553L153.583 16.3954L137.202 0L100.327 0.0354004C75.5784 0.070816 63.0621 0.212463 62.2821 0.460342ZM133.125 17.5639C133.125 25.8855 133.267 29.9224 133.55 30.9493C134.118 32.8969 137.061 35.8361 139.011 36.4026C140.039 36.6859 144.081 36.8276 152.413 36.8276H164.327V99.6823V162.573L163.44 163.422L162.59 164.308H113.269H63.9486L63.0621 163.422L62.2112 162.573L62.2821 153.436L62.3885 144.3L65.4023 144.052C71.8909 143.521 79.6205 141.29 85.9318 138.103C104.086 129.038 116.247 111.545 118.588 91.1837C119.19 85.8012 119.084 84.0306 118.056 83.0391L117.205 82.1538H89.6902H62.2112V44.7951V7.40092L63.0976 6.55106L63.9486 5.66577H98.5545H133.125V17.5639ZM149.612 20.5385L160.249 31.1618H150.392H140.535L139.684 30.2765L138.798 29.4267V19.6532C138.798 14.3061 138.833 9.91512 138.904 9.91512C138.94 9.91512 143.762 14.6956 149.612 20.5385ZM56.5381 57.4723V83.7473L37.9232 102.338L19.3084 120.929L18.2447 119.69C12.7489 113.316 8.45858 104.357 6.50845 95.256C5.44474 90.3338 5.33837 80.4541 6.29571 75.6028C8.6004 63.9525 13.8126 54.2499 22.0031 46.3532C30.8673 37.8545 42.4617 32.472 54.2334 31.4097C55.0134 31.3389 55.8644 31.268 56.1126 31.2326C56.4317 31.1618 56.5381 36.6151 56.5381 57.4723ZM113.092 89.661C112.205 97.1682 110.61 102.728 107.56 108.889C102.348 119.477 93.9096 127.905 83.308 133.11C74.9756 137.218 68.8416 138.635 59.1973 138.599C52.1414 138.599 48.3475 137.997 42.2135 135.943C36.434 134.031 28.4917 129.534 24.6624 126.028L23.4568 124.93L42.0362 106.375L60.6156 87.8196H86.9601H113.304L113.092 89.661Z" fill="white"/>
<path d="M68.7707 15.05L67.8843 15.8998V45.3265V74.7531L68.7707 75.603L69.6217 76.4883H99.0863H128.551L129.473 75.5676C130.395 74.6469 130.395 74.6115 130.147 70.6809C129.508 59.5263 126.317 49.8591 120.254 40.723C110.468 25.992 94.7606 16.5018 77.0321 14.5542C71.3945 13.9168 69.7635 14.023 68.7707 15.05ZM80.2942 20.7866C90.1157 22.3801 99.9373 27.3376 107.454 34.4553C117.347 43.8038 123.02 55.3478 124.403 68.9457L124.58 70.8225H99.0863H73.5574V45.3265V19.8305L75.2593 20.0429C76.1812 20.1492 78.4504 20.4679 80.2942 20.7866Z" fill="white"/>
<path d="M135.961 50.9913V53.8242H147.308H158.654V50.9913V48.1584H147.308H135.961V50.9913Z" fill="white"/>
<path d="M135.961 67.9894V70.8223H147.308H158.654V67.9894V65.1565H147.308H135.961V67.9894Z" fill="white"/>
<path d="M135.961 84.9874V87.8203H147.308H158.654V84.9874V82.1545H147.308H135.961V84.9874Z" fill="white"/>
<path d="M128.161 108.146C122.665 109.35 119.084 111.298 115.042 115.405C112.666 117.778 111.673 119.124 110.503 121.461C108.305 125.887 107.773 128.26 107.809 133.501C107.844 137.29 107.986 138.352 108.766 140.76C110.113 144.832 111.957 147.807 115.219 151.029C118.517 154.322 120.892 155.81 125.218 157.332C128.055 158.324 128.764 158.43 132.77 158.43C138.018 158.465 140.429 157.934 144.755 155.739C153.654 151.312 159.257 141.397 158.547 131.34C158.086 125.073 155.675 119.903 151.031 115.264C146.102 110.342 140.996 108.075 134.189 107.828C131.813 107.721 129.65 107.863 128.161 108.146ZM139.543 114.449C144.826 116.397 148.549 119.655 150.853 124.435C156.207 135.554 150.747 148.09 138.798 152.127C135.926 153.118 129.792 153.012 126.955 151.985C120.609 149.683 116.283 145.222 114.12 138.812C113.624 137.396 113.446 135.838 113.446 133.146C113.446 127.552 115.219 123.161 118.978 119.336C121.814 116.468 125.36 114.52 129.402 113.635C131.884 113.104 136.954 113.529 139.543 114.449Z" fill="white"/>
<path d="M134.827 130.206L127.452 137.571L124.332 134.455C122.63 132.755 121.07 131.374 120.857 131.374C120.396 131.374 117.169 134.668 117.169 135.128C117.169 135.305 119.226 137.501 121.708 139.979C125.75 143.945 126.424 144.477 127.452 144.477C128.551 144.477 129.437 143.698 137.451 135.73C142.273 130.914 146.244 126.806 146.244 126.594C146.244 126.134 142.982 122.876 142.521 122.876C142.308 122.876 138.869 126.169 134.827 130.206Z" fill="white"/>
</svg>
