<svg width="139" height="170" viewBox="0 0 139 170" fill="none" xmlns="http://www.w3.org/2000/svg">
<path d="M106.432 0.249359C104.427 0.382217 102.905 0.6147 102.559 0.91362C101.833 1.44502 101.418 3.03923 101.072 6.09482C100.761 9.28325 100.623 9.51573 98.6513 10.3793L96.8876 11.1764L93.6368 9.21681C89.729 6.89192 88.5877 6.72586 87.0315 8.32007C83.1928 12.2724 80.9449 14.8298 80.7374 15.4608C80.4262 16.3908 80.8066 17.0883 83.5041 20.4427L85.7174 23.133L85.164 24.4283C84.8528 25.1257 84.5761 25.7236 84.507 25.79C84.4724 25.8232 81.602 24.694 78.1092 23.1994C74.6509 21.7381 71.5038 20.5424 71.158 20.5424C69.7401 20.5424 68.7718 22.1698 64.1031 32.499C61.4748 38.2448 59.1578 43.3264 58.8811 43.7913C58.5007 44.4888 58.4315 41.5661 58.397 24.6608C58.397 6.09482 58.3624 4.66667 57.8091 4.20169C57.4632 3.90277 56.8407 3.57065 56.4257 3.47101C55.5266 3.20531 53.7283 4.00241 53.417 4.7663C53.3133 5.06522 53.2095 7.88831 53.2095 11.0435V16.7893L50.5467 17.0218C40.1718 17.9186 29.2783 22.1366 21.0476 28.447C15.3414 32.8311 8.59776 40.5697 8.59776 42.7285C8.59776 43.9906 9.87732 45.1199 11.2952 45.1199C12.229 45.1199 12.6094 44.8209 14.3385 42.5293C21.8084 32.7979 30.5924 26.8528 42.3506 23.5647C44.7368 22.9005 50.7888 21.8709 52.4487 21.8709H53.2095V75.0114V128.152H44.8751C33.0132 128.152 33.1515 128.252 33.1515 120.114C33.1515 116.228 33.0478 114.867 32.6674 114.335C32.3907 113.97 30.9382 112.974 29.4512 112.11C17.7622 105.468 9.08192 93.6438 6.17696 80.3919C5.24323 76.2735 4.93198 68.867 5.45073 64.8815C5.65822 63.2208 6.24613 60.3313 6.73029 58.4382C7.69861 54.6519 7.59486 53.8548 5.93488 53.1241C4.75907 52.626 4.30949 52.6592 3.30659 53.4231C2.61494 53.9545 2.26911 54.818 1.54287 57.6743C0.194143 63.2208 -0.151685 66.6085 0.0558117 72.5204C0.436222 83.0489 3.47951 92.0163 9.66982 100.917C12.7131 105.301 19.7334 112.01 24.4367 115L27.9641 117.258V121.476C27.9641 126.358 28.4137 128.019 30.2466 130.078C30.9037 130.809 32.1141 131.739 32.9786 132.137L34.5348 132.868V139.577C34.5348 146.884 34.8807 148.976 36.4715 151.6C39.2727 156.183 44.3564 158.708 50.8233 158.708H53.2095V163.49C53.2095 167.542 53.3133 168.373 53.832 168.97C54.7312 170.033 56.322 170.199 57.4632 169.336L58.397 168.638V138.082C58.397 121.31 58.5007 107.56 58.639 107.56C58.9849 107.56 84.4378 118.254 84.8182 118.553C84.9911 118.686 84.9911 119.483 84.8182 120.347C84.5415 121.742 84.3686 121.974 83.2274 122.406L81.9478 122.904L79.3195 121.144C75.55 118.653 75.3079 118.686 71.3309 122.572C67.3539 126.425 67.3193 126.657 69.8439 130.145C71.573 132.47 71.6076 132.602 71.2272 133.798C70.7776 135.259 70.7776 135.259 67.2156 135.824C63.0656 136.455 62.8927 136.688 62.8927 142.035C62.8927 147.648 62.9965 147.781 67.5268 148.545L70.7776 149.109L71.2618 150.371L71.7805 151.633L69.9476 154.257C68.9101 155.685 68.0801 157.213 68.0801 157.678C68.0801 158.907 74.5125 165.018 75.7921 165.018C76.3108 165.018 77.7979 164.287 79.4233 163.258L82.1208 161.464L83.2966 161.996C83.9536 162.261 84.5415 162.527 84.6107 162.56C84.6799 162.594 84.9565 163.922 85.2678 165.549C86.0978 169.867 86.2707 170 91.8731 170C97.5447 170 97.8559 169.834 98.4784 166.28C99.1701 162.427 99.1355 162.494 100.588 162.029C101.902 161.63 101.937 161.63 104.427 163.324C108.092 165.815 108.369 165.749 112.45 161.73C114.525 159.704 115.804 158.209 115.804 157.778C115.804 157.412 114.94 155.885 113.902 154.423L112 151.766L112.519 150.471L113.072 149.176L116.012 148.744C117.81 148.478 119.297 148.046 119.816 147.681C120.611 147.05 120.646 146.917 120.646 142.433C120.646 136.82 120.542 136.654 117.015 135.99C114.732 135.558 115.251 135.525 125.66 135.492C133.615 135.459 136.934 135.326 137.453 135.027C137.834 134.794 140.739 132.005 143.92 128.783C149.108 123.469 149.661 122.771 149.868 121.476C149.972 120.679 150.041 110.549 149.972 98.991L149.868 77.9341L148.9 77.137L147.932 76.3399H132.577H117.188L118.087 74.4136C118.571 73.384 119.747 70.7601 120.715 68.6013L122.479 64.7154L121.026 61.1949C120.231 59.2353 119.643 57.6411 119.678 57.6079C119.747 57.5747 120.646 57.1761 121.718 56.6779L123.62 55.8144L126.387 57.475C130.433 59.9328 131.159 60.1985 132.335 59.6006C133.2 59.1689 139.079 53.1241 139.77 51.9285C140.289 51.0317 139.805 50.0021 137.315 46.9134L134.929 43.9574L135.62 42.0975L136.347 40.2376L139.77 39.5069C143.955 38.6102 144.681 38.3112 145.131 37.3148C145.615 36.3185 145.131 27.3178 144.577 26.2882C144.059 25.3914 143.782 25.2918 139.182 24.7272C137.142 24.4615 135.413 24.1958 135.378 24.1294C135.344 24.0962 134.963 23.2658 134.514 22.3359L133.718 20.6752L135.828 17.4536C137.073 15.5605 137.937 13.8666 137.937 13.3352C137.937 12.4052 136.762 11.2096 131.955 7.22404C130.329 5.82912 129.326 5.2645 128.669 5.2645C128.012 5.2645 126.698 5.99518 124.519 7.6226L121.338 9.98071L119.332 9.31645L117.361 8.68541L116.461 4.93237C115.147 -0.448105 115.528 -0.282043 106.432 0.249359ZM111.966 8.51935C112.381 10.2464 112.899 11.9403 113.142 12.2724C113.384 12.6377 114.386 13.1691 115.459 13.4681C116.496 13.7338 118.26 14.3316 119.366 14.7966C120.646 15.2948 121.683 15.494 122.133 15.3612C122.548 15.2283 124.139 14.1987 125.695 13.0695L128.496 11.0103L130.26 12.4717L132.024 13.933L130.156 16.7561C129.119 18.2839 128.185 19.8781 128.081 20.3099C127.943 20.8081 128.393 22.0038 129.465 23.9633C130.329 25.5575 131.021 27.0853 131.021 27.3178C131.021 28.3142 132.404 28.912 135.759 29.377C137.626 29.6095 139.355 29.842 139.597 29.842C139.874 29.842 140.012 30.5062 140.012 32.1004V34.3257L136.485 35.0896C134.479 35.5214 132.681 36.086 132.37 36.4181C132.024 36.717 131.505 37.8795 131.194 38.9755C130.882 40.0715 130.329 41.4997 129.949 42.1971C128.911 44.1567 129.084 44.8542 131.54 47.9429L133.822 50.7992L133.13 51.696C132.785 52.1942 132.093 52.9581 131.609 53.3898L130.71 54.1537L127.632 52.2938C125.937 51.2642 124.208 50.4339 123.793 50.4339C123.413 50.4339 121.995 50.9653 120.681 51.5964C119.401 52.2274 118.156 52.7588 117.983 52.7588C117.706 52.7588 116.842 50.9321 115.631 47.7437C115.459 47.3451 115.839 47.013 117.015 46.4484C117.914 46.0498 119.539 44.8874 120.681 43.891C128.323 37.0824 126.387 25.1257 116.911 20.642C114.317 19.4131 114.214 19.3799 110.306 19.3799C106.536 19.3799 106.156 19.4464 104.012 20.4095C100.208 22.1366 97.3718 25.0593 96.0922 28.6131C95.7464 29.5763 95.3314 30.3069 95.1585 30.2737C93.9481 30.0412 89.5215 27.9821 89.5215 27.6167C89.5215 27.3842 89.9019 26.3546 90.386 25.325C90.8702 24.2954 91.2506 23.0666 91.2506 22.6348C91.2506 22.1034 90.386 20.7417 88.9681 19.0146L86.7203 16.2247L88.1382 14.5641C88.9336 13.6341 89.6598 12.9034 89.729 12.9034C89.7981 12.9034 91.2506 13.7338 92.9106 14.7301C94.6051 15.7265 96.3689 16.5569 96.853 16.5569C97.3026 16.5569 98.8588 15.9922 100.277 15.2948C101.695 14.6305 103.32 13.8666 103.942 13.6341C105.153 13.1691 105.568 12.2724 105.914 9.41609C106.052 8.48615 106.225 7.19084 106.329 6.52658L106.536 5.29771L108.646 5.19807C109.822 5.13164 110.894 5.16486 110.997 5.2645C111.136 5.36414 111.585 6.8255 111.966 8.51935ZM113.626 24.6276C118.364 26.3214 121.199 31.403 119.851 35.8535C119.124 38.2116 117.568 40.2376 115.562 41.4664C114.663 42.0311 113.833 42.4628 113.695 42.4628C113.557 42.4628 113.038 41.4332 112.519 40.1379C112 38.8759 111.239 37.5473 110.824 37.2484C110.409 36.9163 107.92 35.7538 105.326 34.6578C100.104 32.4658 100.035 32.3994 101.107 29.9748C102.006 27.9156 103.631 26.2882 105.845 25.2254C107.608 24.3619 108.369 24.1958 110.237 24.229C111.482 24.229 113.003 24.4283 113.626 24.6276ZM89.2794 33.3957C98.2709 37.1488 105.637 40.2708 105.706 40.304C105.741 40.3372 104.15 43.9574 102.144 48.3415C100.138 52.7256 98.513 56.6115 98.513 56.9768C98.513 57.3754 98.7897 57.9732 99.1355 58.3386C99.4467 58.7039 103.389 60.5306 107.85 62.4237C112.312 64.2836 116.012 65.8447 116.081 65.9111C116.15 65.9443 115.147 68.3024 113.868 71.1587L111.516 76.3399H106.847C102.94 76.3399 101.971 76.4395 101.21 76.9377C99.6542 77.9341 89.729 88.2965 89.2794 89.3925C89.0027 90.1564 88.8644 94.0091 88.8644 102.512C88.8298 113.837 88.7952 114.568 88.2419 114.402C87.8961 114.302 81.0833 111.446 73.0947 108.091L58.5699 101.947L58.4661 79.7276L58.397 57.5415L65.0023 43.0939C68.6335 35.156 71.8151 28.1813 72.0572 27.5835C72.3338 27.0189 72.6451 26.5207 72.7488 26.5207C72.8872 26.5207 80.3224 29.6095 89.2794 33.3957ZM112.139 53.0577C113.591 56.6115 114.732 59.5674 114.629 59.6339C114.525 59.7335 105.084 55.8476 104.772 55.5487C104.703 55.4823 105.637 53.257 106.847 50.6C108.162 47.6772 109.13 45.9502 109.268 46.1827C109.407 46.4484 110.721 49.5372 112.139 53.0577ZM139.736 82.8828C138.975 83.7796 137.592 85.1745 136.658 86.0712L134.963 87.6322L116.392 87.5658L97.8213 87.4662L100.795 84.3774L103.77 81.3218H122.444H141.119L139.736 82.8828ZM144.508 103.275V120.945L141.741 123.635L138.975 126.325V121.742C138.975 117.324 138.94 117.125 138.11 116.361C137.073 115.332 135.447 115.265 134.479 116.195C133.822 116.826 133.787 117.291 133.787 123.502C133.787 128.55 133.684 130.211 133.338 130.311C133.096 130.41 128.6 130.444 123.309 130.41L113.729 130.311L114.594 129.082C116.15 126.857 115.874 126.093 112.242 122.605C108.265 118.786 107.954 118.753 104.254 121.21L101.695 122.937L100.346 122.439C99.0317 121.908 99.0317 121.875 98.4784 119.151C97.7176 115.166 97.2334 114.535 95.193 114.535H94.3631V103.574V92.6142H114.075H133.787V99.2567C133.787 105.468 133.822 105.933 134.479 106.564C135.517 107.56 137.349 107.46 138.249 106.364C138.94 105.534 138.975 105.069 138.975 98.2271V91.02L141.603 88.3297C143.056 86.8351 144.301 85.6395 144.37 85.6395C144.439 85.6395 144.508 93.5773 144.508 103.275ZM93.706 122.007C94.1901 124.897 94.8818 125.96 96.7147 126.524C97.4063 126.724 98.7205 127.255 99.6196 127.687C100.519 128.119 101.556 128.484 101.902 128.484C102.248 128.484 103.631 127.753 104.98 126.857L107.401 125.229L108.473 126.259L109.545 127.288L108.023 129.348C105.914 132.237 105.879 132.47 107.124 134.994C107.712 136.223 108.196 137.418 108.196 137.684C108.196 137.95 108.611 138.581 109.164 139.079C109.891 139.81 110.652 140.075 112.796 140.407L115.459 140.806V142.267C115.459 143.563 115.355 143.729 114.525 143.895C113.971 143.994 112.692 144.227 111.62 144.426C109.407 144.825 108.819 145.323 108.196 147.249C107.954 147.98 107.47 149.142 107.124 149.807C106.121 151.7 106.294 152.63 108.092 155.154L109.718 157.412L108.68 158.376L107.677 159.372L105.153 157.711C103.735 156.781 102.386 156.051 102.11 156.051C101.798 156.051 100.761 156.416 99.7926 156.848C98.7897 157.279 97.4409 157.778 96.7493 158.01C94.9164 158.575 94.4668 159.272 93.9481 162.195L93.4985 164.852L92.046 164.952C90.4206 165.051 90.4898 165.184 89.8327 161.697C89.3486 159.206 88.899 158.542 87.1353 158.01C86.4436 157.811 85.164 157.279 84.2649 156.848C83.3657 156.416 82.2591 156.051 81.8095 156.051C81.3599 156.051 80.0112 156.715 78.8008 157.545C77.5904 158.376 76.4492 159.04 76.2417 159.04C75.8267 159.04 74.305 157.678 74.305 157.313C74.305 157.147 74.9967 156.017 75.8613 154.789C76.7258 153.56 77.4175 152.231 77.4175 151.799C77.4175 151.401 77.0371 150.338 76.5875 149.474C76.1379 148.611 75.5846 147.349 75.3771 146.685C74.7892 144.991 74.2705 144.692 71.0543 144.094L68.2531 143.563L68.1493 142.168C68.0456 140.64 67.8035 140.773 71.6768 140.108C74.0284 139.743 74.8238 139.179 75.3771 137.485C75.5846 136.82 76.1379 135.592 76.5875 134.728C77.0371 133.864 77.4175 132.868 77.4175 132.536C77.4175 132.171 76.6567 130.809 75.6884 129.447L73.9592 126.989L74.9621 126.026L75.965 125.063L78.6279 126.79C81.5674 128.65 81.4983 128.65 84.5761 127.288C85.5444 126.857 86.6165 126.491 86.9278 126.491C87.239 126.491 87.9307 126.093 88.4494 125.561C89.1756 124.864 89.4869 124.1 89.7981 122.074L90.2477 119.517H91.7693H93.291L93.706 122.007ZM53.2095 143.463V153.825L49.9934 153.626C46.0509 153.427 44.0797 152.63 42.1431 150.471C40.0335 148.212 39.7223 146.685 39.7223 139.378V133.134H46.4659H53.2095V143.463Z" fill="white"/>
<path d="M8.36985 131.274C4.63491 132.437 1.90287 134.861 0.623309 138.083C0.035402 139.611 -0.0683464 140.474 0.035402 142.766C0.208316 146.021 0.899971 147.582 3.18243 149.973C8.6811 155.719 18.7101 154.224 22.3413 147.117C23.1713 145.489 23.3096 144.858 23.3096 142.268C23.3096 139.91 23.1367 138.946 22.5488 137.717C21.5113 135.525 19.0213 133.068 16.7043 132.005C14.3527 130.876 10.6177 130.577 8.36985 131.274ZM15.321 137.02C20.6467 140.64 18.1914 148.412 11.7244 148.412C7.85111 148.412 5.15365 145.788 5.15365 142.035C5.15365 137.02 11.0327 134.13 15.321 137.02Z" fill="white"/>
<path d="M1.0029 16.191C0.449576 16.7224 0 17.5195 0 17.918C0 18.8148 9.75235 28.4465 10.9627 28.7122C11.3777 28.8118 12.0348 28.8118 12.4152 28.679C13.349 28.4133 14.2827 26.6862 14.0406 25.723C13.7639 24.5938 3.73494 15.2278 2.80121 15.2278C2.38621 15.2278 1.55623 15.6595 1.0029 16.191Z" fill="white"/>
<path d="M0.691656 69.0339C0.242079 69.4657 0 70.1299 0 70.9935C0 73.2187 0.449576 73.3516 8.57653 73.3516C12.8648 73.3516 15.8735 73.2187 16.2885 72.9862C17.7756 72.2223 17.741 69.4657 16.2539 68.7018C15.8735 68.5025 12.4844 68.3696 8.50736 68.3696C1.83289 68.3696 1.34873 68.4029 0.691656 69.0339Z" fill="white"/>
<path d="M9.52162 113.504C7.41207 114.965 0.0459392 122.372 0.0113565 123.069C-0.126975 124.83 1.01426 126.158 2.57048 126.158C3.46963 126.158 4.40337 125.394 8.58789 121.442C11.3199 118.818 13.637 116.36 13.7753 115.962C14.0865 114.733 13.6024 113.571 12.4957 113.039C11.147 112.375 11.0778 112.375 9.52162 113.504Z" fill="white"/>
</svg>
