<?xml version="1.0" standalone="no"?>
<!DOCTYPE svg PUBLIC "-//W3C//DTD SVG 20010904//EN"
 "http://www.w3.org/TR/2001/REC-SVG-20010904/DTD/svg10.dtd">
<svg version="1.0" xmlns="http://www.w3.org/2000/svg"
 width="512.000000pt" height="512.000000pt" viewBox="0 0 512.000000 512.000000"
 preserveAspectRatio="xMidYMid meet">

<g transform="translate(0.000000,512.000000) scale(0.100000,-0.100000)"
fill="#000000" stroke="none">
<path d="M735 5107 c-85 -33 -141 -92 -165 -173 -8 -29 -10 -667 -8 -2394 3
-2306 3 -2356 22 -2394 25 -50 72 -97 122 -122 38 -19 79 -19 1859 -19 1780 0
1821 0 1859 19 50 25 97 72 122 122 19 38 19 83 22 1997 2 1560 0 1962 -10
1980 -11 19 -875 844 -1006 960 l-42 37 -1373 -1 c-1025 0 -1380 -3 -1402 -12z
m2675 -539 c0 -370 2 -406 19 -443 21 -46 53 -78 96 -97 23 -10 136 -13 463
-16 l432 -3 -2 -1899 -3 -1900 -28 -27 -27 -28 -1795 0 -1795 0 -27 28 -28 27
0 2349 c0 2335 0 2349 20 2371 11 12 29 26 40 31 11 4 608 8 1328 8 l1307 1 0
-402z m632 -153 l253 -240 -355 -3 c-195 -1 -361 0 -367 3 -10 3 -13 82 -13
351 l0 346 114 -109 c63 -59 229 -216 368 -348z"/>
<path d="M1305 4720 c-12 -4 -26 -14 -32 -21 -11 -14 -233 -734 -233 -756 0
-6 12 -21 26 -32 28 -22 98 -29 109 -11 4 6 16 45 29 88 l22 77 131 3 131 3
17 -58 c9 -32 19 -67 22 -78 3 -11 10 -26 15 -32 23 -29 121 -3 130 34 4 16
-191 668 -222 742 -18 45 -88 65 -145 41z m100 -353 c25 -86 45 -161 45 -167
0 -6 -36 -10 -96 -10 -73 0 -95 3 -92 13 3 6 25 83 48 169 24 87 45 156 47
154 2 -2 24 -73 48 -159z"/>
<path d="M1897 4372 c-12 -13 -17 -37 -17 -85 l0 -67 -75 0 c-80 0 -95 -10
-95 -63 0 -41 29 -57 103 -57 l66 0 3 -72 c3 -67 5 -73 31 -88 24 -13 30 -13
55 0 25 15 27 21 30 88 l3 72 68 0 c76 0 101 16 101 63 0 44 -24 57 -101 57
l-69 0 0 69 c0 50 -4 74 -16 85 -21 22 -67 20 -87 -2z"/>
<path d="M1019 3227 c-66 -44 -70 -63 -67 -332 4 -346 -15 -329 358 -333 297
-3 313 0 357 67 22 33 23 41 23 280 0 271 -2 279 -66 322 -27 17 -51 19 -300
19 -265 0 -272 0 -305 -23z m521 -322 l0 -195 -217 2 -218 3 -3 193 -2 192
220 0 220 0 0 -195z"/>
<path d="M1937 3159 c-47 -27 -39 -108 13 -129 18 -7 66 -11 128 -8 81 2 104
7 121 22 29 26 28 76 -2 104 -21 20 -34 22 -133 22 -60 0 -117 -5 -127 -11z"/>
<path d="M2457 3159 c-47 -28 -40 -107 11 -128 19 -8 252 -11 795 -9 l769 3
19 24 c26 32 24 73 -4 99 l-23 22 -775 0 c-522 -1 -780 -4 -792 -11z"/>
<path d="M1929 2772 c-33 -27 -30 -78 5 -109 l28 -24 530 3 530 3 19 24 c26
32 24 73 -4 99 l-23 22 -531 0 c-501 0 -532 -1 -554 -18z"/>
<path d="M1034 2226 c-17 -8 -42 -29 -55 -47 -24 -34 -24 -36 -24 -285 l0
-251 28 -36 c42 -55 67 -59 362 -55 364 4 345 -15 345 343 0 268 -2 277 -58
320 -25 19 -45 20 -297 22 -211 2 -277 0 -301 -11z m506 -331 l0 -195 -220 0
-220 0 0 195 0 195 220 0 220 0 0 -195z"/>
<path d="M1938 2146 c-39 -30 -40 -92 0 -122 14 -11 214 -13 1048 -14 1028 0
1031 0 1058 21 36 28 36 80 0 108 -27 21 -30 21 -1058 21 -830 -1 -1034 -3
-1048 -14z"/>
<path d="M1938 1766 c-39 -30 -40 -92 0 -122 13 -11 125 -13 543 -14 518 0
527 0 553 21 36 28 36 80 0 108 -26 21 -35 21 -553 21 -416 -1 -530 -3 -543
-14z"/>
<path d="M1052 1223 c-33 -6 -88 -66 -96 -103 -3 -18 -6 -130 -6 -249 0 -242
5 -266 69 -308 33 -23 40 -23 305 -23 249 0 273 2 300 19 64 43 66 51 66 322
0 239 -1 247 -23 280 -43 65 -62 69 -342 68 -137 -1 -260 -4 -273 -6z m488
-338 l0 -195 -220 0 -220 0 0 188 c0 104 3 192 7 195 3 4 102 7 220 7 l213 0
0 -195z"/>
<path d="M1934 1127 c-35 -31 -38 -82 -5 -109 22 -17 67 -18 1060 -18 l1038 0
21 23 c27 29 28 67 3 98 l-19 24 -1035 3 -1036 2 -27 -23z"/>
<path d="M1935 747 c-36 -31 -39 -82 -6 -109 20 -15 41 -18 135 -18 105 0 114
2 134 23 28 30 29 78 1 103 -17 16 -40 20 -128 22 -102 4 -109 2 -136 -21z"/>
<path d="M2463 758 c-48 -23 -51 -103 -4 -127 12 -7 118 -11 289 -11 268 0
269 0 290 23 27 29 28 67 3 98 l-19 24 -269 2 c-175 1 -276 -2 -290 -9z"/>
</g>
</svg>
