<svg width="170" height="170" viewBox="0 0 170 170" fill="none" xmlns="http://www.w3.org/2000/svg">
<path d="M7.92897 0.474045C4.14234 1.53857 1.15289 4.73216 0.322485 8.65761C0.0235402 10.0215 -0.042892 25.9229 0.0235402 72.3629L0.123189 134.239L0.986807 136.068C1.45183 137.066 2.44832 138.497 3.17907 139.229C6.00244 142.056 9.25762 142.855 16.7977 142.655C20.8168 142.555 21.2486 142.489 21.9129 141.823C22.8098 140.958 22.8762 139.328 22.079 138.43C21.5808 137.865 20.8832 137.798 15.469 137.665C8.92545 137.532 8.29435 137.366 6.5339 135.503C5.13882 134.039 4.93952 133.041 4.93952 127.386V122.096H50.2795H95.6195V124.225V126.354L93.7926 126.487C91.8328 126.654 90.6703 127.286 89.5077 128.883C88.9098 129.648 88.777 130.38 88.6773 133.773L88.5777 137.732H61.4069C34.6347 137.732 34.2693 137.732 33.6714 138.397C32.841 139.328 32.9075 140.925 33.8043 141.823C34.5018 142.555 34.6679 142.555 46.9579 142.655L59.4139 142.755V147.013V151.271L54.6972 151.437C49.283 151.604 47.589 152.136 45.3635 154.298C43.4038 156.194 42.8059 158.29 42.8059 163.114C42.8059 167.505 43.1712 168.603 44.8653 169.534C45.4632 169.9 53.6343 169.967 85.0567 170H124.484L125.614 168.902C127.042 167.572 127.341 165.975 127.075 161.484C126.809 157.026 125.746 154.93 122.657 152.934C120.997 151.837 118.339 151.371 113.988 151.371H110.567V149.874V148.377H134.017H157.468L158.763 147.645C160.192 146.847 161.387 144.817 161.387 143.187C161.387 142.322 161.553 142.156 162.982 141.624C165.108 140.892 167.3 138.929 168.529 136.7L169.525 134.904L169.725 125.257C169.857 119.934 169.957 91.7905 169.99 62.7156C170.024 6.66162 170.057 7.95901 168.529 5.46402C166.934 2.93578 164.643 1.20592 161.886 0.474045C159.527 -0.158005 10.2209 -0.158005 7.92897 0.474045ZM162.185 6.12935C164.742 8.05881 164.709 7.95901 164.709 19.0367V28.9501H84.9903H5.27168V19.1365C5.27168 8.62434 5.3049 8.32494 6.99892 6.76141C9.0251 4.86522 2.94656 4.99829 85.3557 5.09808L160.956 5.16463L162.185 6.12935ZM164.709 75.5232V117.106H163.048H161.387V110.287C161.387 102.735 161.221 101.904 159.428 100.407C158.664 99.7412 157.833 99.4418 156.405 99.2755L154.412 99.0426V96.6474V94.2522L156.405 94.0194C157.833 93.853 158.664 93.5536 159.428 92.8883C161.221 91.3913 161.387 90.5597 161.387 82.9416C161.387 75.1906 161.188 74.3589 159.095 72.9617C157.999 72.2298 157.734 72.1966 149.762 72.1966C142.255 72.1966 141.458 72.2631 140.76 72.7954C139.764 73.627 139.764 75.2904 140.76 76.2883C141.458 76.9869 141.757 77.0202 148.931 77.12L156.405 77.2198V83.2078V89.1625L125.115 89.0959L93.7926 88.9961L93.6929 83.108L93.6265 77.2198L110.7 77.12L127.806 77.0202L128.537 76.2883C129.533 75.2904 129.533 73.627 128.537 72.7954C127.806 72.2298 126.776 72.1966 109.936 72.1966H92.1318L90.9028 73.0282C88.8102 74.4254 88.5777 75.6563 88.7105 83.7733C88.8102 90.2935 88.8434 90.8591 89.5077 91.724C90.5042 93.0546 91.9657 93.8198 93.9254 94.0526L95.6195 94.2522V96.6474V99.0426L93.6265 99.2755C91.9325 99.4751 91.4342 99.7079 90.3381 100.739C88.6773 102.336 88.478 103.5 88.7437 111.185L88.943 117.106H46.9247H4.93952V75.5232V33.9401H84.8242H164.709V75.5232ZM149.43 96.6474V99.1424H125.016H100.602V96.6474V94.1524H125.016H149.43V96.6474ZM156.405 110.12V116.108H125.016H93.6265V110.353C93.6265 107.16 93.7262 104.465 93.859 104.365C93.9587 104.232 108.109 104.132 125.248 104.132H156.405V110.12ZM149.43 123.76V126.421H125.016H100.602V123.76V121.098H125.016H149.43V123.76ZM164.709 127.585C164.709 133.74 164.377 134.97 162.384 136.401L161.387 137.099V133.74C161.387 131.045 161.254 130.147 160.723 129.082C159.893 127.452 158.033 126.421 155.907 126.421H154.412V124.259V122.096H159.56H164.709V127.585ZM156.405 137.399V143.387H125.016H93.6265V137.399V131.411H125.016H156.405V137.399ZM88.8102 144.052C88.943 144.817 89.4413 145.882 89.9063 146.447C91.3678 148.177 92.2979 148.377 99.2732 148.377H105.584V149.874V151.371H84.9903H64.3963V147.046V142.721H76.487H88.5777L88.8102 144.052ZM119.502 156.96C121.462 157.924 122.026 159.022 122.159 162.216L122.259 165.01H85.0235H47.7883V162.349C47.7883 158.756 48.6519 157.192 50.9438 156.594C51.3092 156.527 66.6218 156.427 84.9903 156.394C116.147 156.361 118.439 156.394 119.502 156.96Z" fill="white"/>
<path d="M15.4027 10.2542C12.6125 11.5849 11.151 13.8803 11.151 16.9741C11.151 21.831 15.6352 25.1909 20.3519 23.8269C26.2643 22.0971 27.3605 14.2129 22.1787 10.7532C20.3519 9.55563 17.3624 9.35603 15.4027 10.2542ZM19.8868 15.3107C21.1158 16.5416 20.5844 18.4378 18.7907 19.0698C17.4621 19.5688 15.6352 17.7392 16.1334 16.4085C16.7645 14.6121 18.6578 14.0799 19.8868 15.3107Z" fill="white"/>
<path d="M34.0036 10.2553C28.4233 12.8833 28.224 20.6677 33.6714 23.3623C36.4284 24.7262 39.7832 24.2272 41.909 22.0981C45.2638 18.7382 44.7324 13.3823 40.7797 10.7543C38.986 9.55668 35.9633 9.35709 34.0036 10.2553ZM38.4878 15.3118C39.7168 16.5426 39.1853 18.4388 37.3916 19.0709C36.063 19.5699 34.2361 17.7402 34.7343 16.4096C35.3655 14.6132 37.2588 14.0809 38.4878 15.3118Z" fill="white"/>
<path d="M52.6045 10.2553C47.0242 12.8833 46.8249 20.6677 52.2724 23.3623C55.0293 24.7262 58.3841 24.2272 60.51 22.0981C63.8648 18.7382 63.3333 13.3823 59.3806 10.7543C57.587 9.55668 54.5643 9.35709 52.6045 10.2553ZM57.0887 15.3118C58.517 16.7422 57.4873 19.0709 55.3947 19.0709C53.5014 19.0709 52.5713 17.0749 53.7671 15.5447C54.6307 14.4469 56.1255 14.3471 57.0887 15.3118Z" fill="white"/>
<path d="M16.0005 46.3162C11.6492 50.5743 10.6859 51.9715 11.2174 53.3021C11.7156 54.4997 19.92 62.4837 20.9497 62.7166C21.6805 62.9162 22.0458 62.7498 22.9095 61.9182C24.4042 60.4212 24.072 59.6228 20.2854 55.8304L17.0634 52.5703L20.1193 49.5098C21.7801 47.8132 23.3081 46.0833 23.5074 45.6841C24.3045 44.0873 23.0423 42.2577 21.1158 42.2577C20.3518 42.2577 19.3553 43.0228 16.0005 46.3162Z" fill="white"/>
<path d="M32.2763 42.9884C31.4459 43.9199 25.467 59.2224 25.467 60.42C25.467 62.3495 28.1575 63.414 29.4862 62.0168C30.1505 61.3515 36.4948 45.3836 36.4948 44.4521C36.4948 44.1527 36.1294 43.5207 35.6644 43.0882C34.6347 42.0237 33.1732 41.9904 32.2763 42.9884Z" fill="white"/>
<path d="M38.1889 43.1218C36.9267 44.7518 37.2256 45.3839 40.8794 49.1097L44.2674 52.5694L40.8794 56.0292C37.4913 59.4556 37.0927 60.1875 37.8235 61.5181C37.9896 61.8508 38.5542 62.3165 39.1189 62.5161C40.5472 63.1149 41.3444 62.5826 46.0611 57.7923C51.5085 52.27 51.5417 52.8023 45.5296 46.8143C41.6101 42.8889 40.8129 42.2568 39.9161 42.2568C39.1854 42.2568 38.6539 42.523 38.1889 43.1218Z" fill="white"/>
<path d="M55.9927 49.9751C55.129 50.6737 54.7637 52.0044 55.2287 52.9358C55.9262 54.3663 56.8563 54.5992 62.1708 54.4994C66.9208 54.3996 67.1533 54.3663 67.7512 53.6012C68.6148 52.5367 68.5483 51.1727 67.6183 50.3078C66.8875 49.6092 66.5222 49.5759 61.7058 49.5759C58.0853 49.5759 56.3912 49.709 55.9927 49.9751Z" fill="white"/>
<path d="M74.2615 49.9421C72.7004 50.8735 72.9329 53.5016 74.6269 54.2002C75.258 54.4663 83.3627 54.5661 102.362 54.4996L129.234 54.3998L129.865 53.6014C130.729 52.5368 130.662 51.1729 129.732 50.308L128.968 49.5761H101.897C83.6285 49.6094 74.6601 49.7092 74.2615 49.9421Z" fill="white"/>
<path d="M55.9927 60.9516C55.129 61.6502 54.7637 62.9808 55.2287 63.9123C55.9927 65.4758 56.5905 65.5423 66.8211 65.4758L76.4206 65.376L77.0517 64.5776C77.9153 63.5131 77.8488 62.1491 76.9188 61.2842C76.1548 60.5524 75.9555 60.5524 66.3561 60.5524C59.0153 60.5524 56.4245 60.6522 55.9927 60.9516Z" fill="white"/>
<path d="M82.2334 60.9193C81.3033 61.4515 80.9047 62.8487 81.3698 63.9465C81.9012 65.2772 83.4292 65.6098 88.1126 65.4768C91.7664 65.377 92.0654 65.3104 92.6632 64.5786C93.5269 63.5141 93.4604 62.1501 92.5304 61.2852C91.7996 60.6199 91.4342 60.5533 87.2822 60.5533C84.791 60.5533 82.5655 60.7197 82.2334 60.9193Z" fill="white"/>
<path d="M97.5128 60.9189C95.8852 61.8837 96.1842 64.545 98.0111 65.177C98.6754 65.4099 102.993 65.543 109.637 65.543C118.273 65.543 120.399 65.4432 121.163 65.044C122.724 64.2456 123.023 62.4492 121.761 61.2849C120.997 60.553 120.831 60.553 109.537 60.553C102.163 60.5863 97.9114 60.6861 97.5128 60.9189Z" fill="white"/>
<path d="M13.2435 73.1947C12.3467 74.0929 12.3799 75.8893 13.2767 76.7209C13.9079 77.2865 14.6718 77.353 22.3447 77.4528C31.5788 77.5526 32.5421 77.4861 33.5053 76.4548C34.369 75.5233 34.3358 74.5253 33.4721 73.3943L32.8078 72.5294H23.3412C14.3397 72.5294 13.8746 72.5626 13.2435 73.1947Z" fill="white"/>
<path d="M39.1521 73.1952C38.2553 74.0934 38.2885 75.8898 39.1853 76.7215C39.8496 77.3202 40.6136 77.3535 55.6605 77.3535H71.4381L72.0693 76.5551C72.9329 75.4906 72.8664 74.1267 71.9364 73.2617C71.1724 72.5299 71.1392 72.5299 55.4944 72.5299C40.2482 72.5299 39.7832 72.5631 39.1521 73.1952Z" fill="white"/>
<path d="M98.8082 81.2458C97.6124 82.3436 97.5128 83.7408 98.6089 84.8386C99.24 85.4706 99.7051 85.5039 106.182 85.5039C112.693 85.5039 113.158 85.4706 113.822 84.8386C114.885 83.8406 114.818 82.1107 113.689 81.2125C112.859 80.5472 112.36 80.5139 106.215 80.5139C99.8711 80.5139 99.6054 80.5472 98.8082 81.2458Z" fill="white"/>
<path d="M119.635 80.8466C118.107 81.4787 117.741 83.6077 118.97 84.772C119.635 85.4041 120.133 85.5039 122.624 85.5039C125.979 85.5039 126.843 85.0049 126.843 83.0422C126.843 81.2125 125.647 80.5139 122.724 80.5472C121.428 80.5472 120.033 80.6803 119.635 80.8466Z" fill="white"/>
<path d="M131.925 80.8466C130.364 81.4787 130.065 83.4414 131.327 84.6722L132.124 85.5039H141.458H150.791L151.589 84.6722C152.054 84.2398 152.419 83.641 152.419 83.3749C152.419 82.4434 151.688 81.2458 150.858 80.8799C149.895 80.4474 133.021 80.4141 131.925 80.8466Z" fill="white"/>
<path d="M14.2401 83.0749C12.5461 83.707 11.9814 85.9026 13.2436 87.1667C13.8415 87.7655 14.3397 87.832 18.525 87.832C23.142 87.832 23.1752 87.832 23.8395 86.9671C25.0353 85.4368 24.5703 83.8733 22.7434 83.1747C21.8133 82.8421 15.1369 82.7423 14.2401 83.0749Z" fill="white"/>
<path d="M30.0177 83.1415C28.2905 83.8733 27.8255 86.1354 29.1541 87.2332C29.8849 87.7988 30.7485 87.832 41.4773 87.832C52.0068 87.832 53.1029 87.7655 53.734 87.2332C54.7305 86.4348 54.7637 84.705 53.8005 83.7403C53.1029 83.0084 52.9036 83.0084 41.8759 82.9419C35.7309 82.9086 30.3831 83.0084 30.0177 83.1415Z" fill="white"/>
<path d="M60.2443 83.2413C58.5834 84.1395 58.2513 85.9026 59.5135 87.1002C60.211 87.7322 60.6428 87.832 63.4662 87.832C66.5221 87.832 66.6882 87.7988 67.3525 86.9671C67.7511 86.4681 68.05 85.8693 68.05 85.6364C68.05 84.6717 67.2196 83.5074 66.2896 83.1747C64.9942 82.7423 61.1079 82.7755 60.2443 83.2413Z" fill="white"/>
<path d="M72.4678 83.1747C70.9731 83.7735 70.5745 86.0356 71.7038 87.1667C72.3017 87.7655 72.8 87.832 77.4502 87.832C82.3662 87.832 82.5655 87.7988 83.263 87.0669C84.1599 86.1022 84.1931 84.838 83.3627 83.8068C82.7648 83.0417 82.5323 83.0084 77.9485 82.9419C75.3576 82.9086 72.8664 83.0084 72.4678 83.1747Z" fill="white"/>
<path d="M13.2435 94.1522C12.3467 95.0504 12.3799 96.8468 13.2767 97.6785C13.9079 98.244 14.5722 98.3105 21.4479 98.3105C28.8883 98.3105 28.9215 98.3105 29.5526 97.5122C30.383 96.5142 30.3498 94.9839 29.5194 94.1522C28.8883 93.5202 28.4233 93.4869 21.3815 93.4869C14.3397 93.4869 13.8746 93.5202 13.2435 94.1522Z" fill="white"/>
<path d="M33.6714 94.1522C32.841 95.0837 32.9075 96.6805 33.8043 97.5787C34.5019 98.3105 34.7011 98.3105 43.8024 98.3105C52.9036 98.3105 53.1029 98.3105 53.8004 97.5787C54.7969 96.5807 54.7969 94.9174 53.8004 94.0857C53.1029 93.5202 52.2725 93.4869 43.6363 93.4869C34.6679 93.4869 34.2361 93.5202 33.6714 94.1522Z" fill="white"/>
<path d="M59.0485 94.0861C58.052 94.9177 58.052 96.5811 59.0485 97.5791C59.746 98.3109 59.9453 98.3109 70.6409 98.4107C76.6198 98.4773 82.0008 98.4107 82.5987 98.3109C84.8242 97.9117 85.721 95.7161 84.326 94.2191C83.6284 93.4873 83.562 93.4873 71.7371 93.4873C60.6429 93.4873 59.7793 93.5205 59.0485 94.0861Z" fill="white"/>
<path d="M98.8414 108.192C97.4795 109.256 97.5792 111.319 99.0739 112.283C99.7714 112.749 100.834 112.816 106.514 112.716C112.493 112.616 113.224 112.549 113.855 111.984C114.785 111.119 114.785 109.356 113.822 108.458C113.158 107.826 112.693 107.792 106.249 107.792C101.299 107.792 99.24 107.892 98.8414 108.192Z" fill="white"/>
<path d="M118.937 108.556C118.04 109.521 118.007 110.785 118.837 111.816C119.402 112.515 119.801 112.615 122.259 112.714C124.684 112.814 125.115 112.748 125.946 112.116C127.075 111.217 127.175 109.454 126.178 108.456C125.614 107.891 125.082 107.791 122.591 107.791C119.934 107.791 119.568 107.857 118.937 108.556Z" fill="white"/>
<path d="M131.194 108.656C130.33 109.754 130.297 110.818 131.127 111.816L131.759 112.615L140.827 112.714C150.492 112.814 151.389 112.714 152.054 111.251C152.585 110.02 152.519 109.521 151.589 108.623L150.791 107.791H141.325H131.858L131.194 108.656Z" fill="white"/>
<path d="M99.7383 134.969C97.9778 135.302 97.2471 137.731 98.4428 139.061C99.0075 139.693 99.4393 139.727 106.149 139.727C112.792 139.727 113.257 139.693 113.888 139.061C115.217 137.731 114.586 135.635 112.626 135.069C111.464 134.77 101.266 134.67 99.7383 134.969Z" fill="white"/>
<path d="M120.1 135.069C118.24 135.668 117.608 137.631 118.871 138.995C119.469 139.627 119.9 139.727 122.458 139.727C126.045 139.727 126.843 139.294 126.843 137.431C126.843 135.602 126.045 135.003 123.288 134.87C122.026 134.803 120.598 134.903 120.1 135.069Z" fill="white"/>
<path d="M132.39 135.069C130.463 135.668 129.898 137.697 131.26 138.995C132.024 139.727 132.224 139.727 141.524 139.727H151.057L151.721 138.862C152.618 137.697 152.585 136.965 151.622 135.834L150.825 134.903L142.056 134.836C137.272 134.803 132.888 134.903 132.39 135.069Z" fill="white"/>
</svg>
